<svg id="visual" viewBox="0 0 960 540" width="960" height="540" xmlns="http://www.w3.org/2000/svg" xmlns:xlink="http://www.w3.org/1999/xlink" version="1.1"><rect x="0" y="0" width="960" height="540" fill="#fff"></rect><defs><linearGradient id="grad1_0" x1="43.8%" y1="0%" x2="100%" y2="100%"><stop offset="14.444444444444446%" stop-color="#ffffff" stop-opacity="1"></stop><stop offset="85.55555555555554%" stop-color="#ffffff" stop-opacity="1"></stop></linearGradient></defs><defs><linearGradient id="grad2_0" x1="0%" y1="0%" x2="56.3%" y2="100%"><stop offset="14.444444444444446%" stop-color="#ffffff" stop-opacity="1"></stop><stop offset="85.55555555555554%" stop-color="#ffffff" stop-opacity="1"></stop></linearGradient></defs><g transform="translate(960, 0)"><path d="M0 324C-18.8 271.2 -37.7 218.4 -88.4 213.4C-139.1 208.4 -221.7 251.2 -229.1 229.1C-236.5 207 -168.6 120.2 -171.8 71.2C-175.1 22.2 -249.6 11.1 -324 0L0 0Z" fill="#9333EA"></path></g><g transform="translate(0, 540)"><path d="M0 -324C13.7 -256.4 27.5 -188.8 76.5 -184.8C125.6 -180.8 210 -240.4 229.1 -229.1C248.2 -217.8 202 -135.7 206.9 -85.7C211.9 -35.7 267.9 -17.9 324 0L0 0Z" fill="#9333EA"></path></g></svg>