<svg id="visual" viewBox="0 0 540 960" width="540" height="960" xmlns="http://www.w3.org/2000/svg" xmlns:xlink="http://www.w3.org/1999/xlink" version="1.1"><rect x="0" y="0" width="540" height="960" fill="#fff"></rect><defs><linearGradient id="grad1_0" x1="0%" y1="0%" x2="100%" y2="100%"><stop offset="30%" stop-color="#ffffff" stop-opacity="1"></stop><stop offset="70%" stop-color="#ffffff" stop-opacity="1"></stop></linearGradient></defs><defs><linearGradient id="grad2_0" x1="0%" y1="0%" x2="100%" y2="100%"><stop offset="30%" stop-color="#ffffff" stop-opacity="1"></stop><stop offset="70%" stop-color="#ffffff" stop-opacity="1"></stop></linearGradient></defs><g transform="translate(540, 0)"><path d="M0 270C-17.6 231.5 -35.2 193 -78.1 188.5C-120.9 183.9 -189.1 213.3 -190.9 190.9C-192.7 168.5 -128.1 94.4 -130.3 54C-132.4 13.5 -201.2 6.8 -270 0L0 0Z" fill="#9333EA"></path></g><g transform="translate(0, 960)"><path d="M0 -270C11.2 -205.8 22.3 -141.6 55.9 -134.9C89.4 -128.2 145.3 -179.1 182.4 -182.4C219.6 -185.8 238 -141.6 249.4 -103.3C260.9 -65 265.5 -32.5 270 0L0 0Z" fill="#9333EA"></path></g></svg>