<svg id="SvgjsSvg1057" width="256" height="256" xmlns="http://www.w3.org/2000/svg" version="1.1" xmlns:xlink="http://www.w3.org/1999/xlink" xmlns:svgjs="http://svgjs.com/svgjs"><defs id="SvgjsDefs1058"></defs><g id="SvgjsG1059"><svg xmlns="http://www.w3.org/2000/svg" viewBox="0 0 32 32" width="256" height="256"><path d="M27,6H23a3,3,0,0,0-3,3H3a1,1,0,0,0-1,1V22a1,1,0,0,0,1,1H9v1H8a1,1,0,0,0,0,2h8a1,1,0,0,0,0-2H15V23h5v2a1,1,0,0,0,1,1h8a1,1,0,0,0,1-1V9A3,3,0,0,0,27,6ZM13,24H11V23h2ZM4,21V11H20V21Zm24,3H22V9a1,1,0,0,1,1-1h4a1,1,0,0,1,1,1Z" fill="#ef4444" class="color000 svgShape"></path><path d="M25 20h0a1 1 0 1 0 1 1A1 1 0 0 0 25 20zM16.29 13.29l-4 4a1 1 0 0 0 0 1.42 1 1 0 0 0 1.42 0l4-4a1 1 0 0 0-1.42-1.42zM11.71 13.29a1 1 0 0 0-1.42 0l-4 4a1 1 0 0 0 0 1.42 1 1 0 0 0 1.42 0l4-4A1 1 0 0 0 11.71 13.29z" fill="#ef4444" class="color000 svgShape"></path></svg></g></svg>