<svg id="SvgjsSvg1027" width="256" height="256" xmlns="http://www.w3.org/2000/svg" version="1.1" xmlns:xlink="http://www.w3.org/1999/xlink" xmlns:svgjs="http://svgjs.com/svgjs"><defs id="SvgjsDefs1028"></defs><g id="SvgjsG1029"><svg xmlns="http://www.w3.org/2000/svg" viewBox="0 0 80 80" width="256" height="256"><path d="M40.333 20.824h-.28l-.147.04c-1.46.074-2.818.712-3.85 1.816a6.228 6.228 0 0 0-1.664 4.25L34.3 50.92c-1.089-1.276-2.604-2.071-4.248-2.209-1.855-.156-3.665.541-4.986 1.907-2.285 2.362-2.554 6.173-.592 8.908l9.213 12.13c.188.262.39.512.605.75 1.492 1.643 3.584 2.59 5.741 2.598l15.74.056.098-.01c8.055-.756 12.88-5.438 12.907-12.524l.068-17.728a6.226 6.226 0 0 0-1.631-4.262c-1.096-1.19-2.569-1.848-4.147-1.854h-.02a5.55 5.55 0 0 0-2.766.733c-1.036-1.634-2.802-2.716-4.807-2.724h-.021c-1.234 0-2.377.41-3.319 1.104-.04-.047-.07-.102-.112-.148-1.095-1.19-2.568-1.848-4.146-1.854a6.034 6.034 0 0 0-1.801.337l.035-9.19c.012-3.36-2.58-6.104-5.778-6.116zm6.306 19.524c.335-.358.767-.555 1.217-.555h.007c.452.001.885.202 1.219.564.372.404.575.95.573 1.538l-.004.867v.003l-.033 8.826 4 .014.033-8.827c.006-1.152.813-2.087 1.803-2.087h.005c.993.004 1.798.947 1.793 2.102l-.033 8.826 4 .016.026-6.866a2.24 2.24 0 0 1 .585-1.532c.337-.36.795-.514 1.224-.555.452.001.885.202 1.218.564.373.404.576.95.574 1.537l-.068 17.728c-.023 6.307-4.986 8.133-9.187 8.548l-15.544-.055c-1.05-.004-2.043-.46-2.793-1.287a4.732 4.732 0 0 1-.347-.434l-9.215-12.131c-.807-1.126-.697-2.775.25-3.753.49-.507 1.115-.76 1.777-.702.678.057 1.285.427 1.74 1.086l6.795 9.315.138-36.153c.002-.588.21-1.132.585-1.533.335-.358.766-.555 1.216-.555h.007l.28.001.062-.017c.887.132 1.573 1.017 1.569 2.084l-.057 14.938v.003l-.037 9.63v.065l2 .008 2 .008.037-9.7a2.24 2.24 0 0 1 .585-1.529zM18 30.941c7.168 0 13-5.832 13-13s-5.832-13-13-13-13 5.831-13 13 5.832 13 13 13zm0-22c4.962 0 9 4.038 9 9s-4.038 9-9 9-9-4.038-9-9 4.038-9 9-9z" fill="#f97316" class="color000 svgShape"></path><path d="m24.807 15.746-2.828-2.829-5.805 5.805-2.153-2.154-2.829 2.828 4.982 4.983zM75 17.94c0-7.168-5.832-13-13-13s-13 5.832-13 13 5.832 13 13 13 13-5.83 13-13zm-13 9c-4.962 0-9-4.037-9-9s4.038-9 9-9 9 4.039 9 9-4.038 9-9 9z" fill="#f97316" class="color000 svgShape"></path><path d="M64.695 12.417 62 15.113l-2.695-2.696-2.828 2.829 2.695 2.695-2.695 2.695 2.828 2.828L62 20.769l2.695 2.695 2.828-2.828-2.695-2.695 2.695-2.695z" fill="#f97316" class="color000 svgShape"></path></svg></g></svg>