<svg xmlns="http://www.w3.org/2000/svg" viewBox="0 0 24 24" width="22" height="22"><path fill="#2f9e48" d="M22.5 6h.5V3a2 2 0 0 0-2-2h-3v.5a.5.5 0 0 1-1 0V1H3a2 2 0 0 0-2 2v3h.5a.5.5 0 0 1 0 1H1v14a2 2 0 0 0 2 2h18a2 2 0 0 0 2-2V7h-.5a.5.5 0 0 1 0-1z" class="color2F9E48 svgShape"></path><path fill="#010101" d="M21 22.75H3a2 2 0 0 1-2-2V21a2 2 0 0 0 2 2h18a2 2 0 0 0 2-2v-.25a2 2 0 0 1-2 2z" opacity=".1" class="color010101 svgShape"></path><path fill="#f3f3f3" d="M17 3H3v18h18V7z" class="colorF3F3F3 svgShape"></path><path fill="#010101" d="M3 20.75h18V21H3z" opacity=".1" class="color010101 svgShape"></path><path fill="#ffffff" d="M17 3H3v.25h14l4 4V7z" opacity=".2" class="colorFFF svgShape"></path><path fill="#cccccc" d="M8 14.5c-.827 0-1.5-.673-1.5-1.5v-2c0-.827.673-1.5 1.5-1.5s1.5.673 1.5 1.5h-1a.5.5 0 0 0-1 0v2a.5.5 0 0 0 1 0h1c0 .827-.673 1.5-1.5 1.5zM11.5 14.5h-1v-5H12c.827 0 1.5.673 1.5 1.5s-.673 1.5-1.5 1.5h-.5v2zm0-3h.5a.5.5 0 0 0 0-1h-.5v1zM16 14.5c-.827 0-1.5-.673-1.5-1.5V9.5h1V13a.5.5 0 0 0 1 0V9.5h1V13c0 .827-.673 1.5-1.5 1.5z" class="colorCCC svgShape"></path><path fill="#ffffff" d="M3 1.25h14V1H3a2 2 0 0 0-2 2v.25a2 2 0 0 1 2-2zM21 1h-3v.25h3a2 2 0 0 1 2 2V3a2 2 0 0 0-2-2z" opacity=".2" class="colorFFF svgShape"></path><linearGradient id="a" x1="11.55" x2="19.795" y1="13.55" y2="21.795" gradientUnits="userSpaceOnUse"><stop offset="0" stop-color="#010101" stop-opacity=".1" class="stopColor010101 svgShape"></stop><stop offset="1" stop-color="#010101" stop-opacity="0" class="stopColor010101 svgShape"></stop></linearGradient><path fill="url(#a)" d="M21 7v14H3l2 2h16a2 2 0 0 0 2-2V9l-2-2z"></path><linearGradient id="b" x1="-.653" x2="24.653" y1="6.1" y2="17.9" gradientUnits="userSpaceOnUse"><stop offset="0" stop-color="#ffffff" stop-opacity=".2" class="stopColorFFF svgShape"></stop><stop offset="1" stop-color="#ffffff" stop-opacity="0" class="stopColorFFF svgShape"></stop></linearGradient><path fill="url(#b)" d="M22.5 6h.5V3a2 2 0 0 0-2-2h-3v.5a.5.5 0 0 1-1 0V1H3a2 2 0 0 0-2 2v3h.5a.5.5 0 0 1 0 1H1v14a2 2 0 0 0 2 2h18a2 2 0 0 0 2-2V7h-.5a.5.5 0 0 1 0-1z"></path></svg>