<svg id="SvgjsSvg1048" width="22" height="22" xmlns="http://www.w3.org/2000/svg" version="1.1" xmlns:xlink="http://www.w3.org/1999/xlink" xmlns:svgjs="http://svgjs.com/svgjs"><defs id="SvgjsDefs1049"></defs><g id="SvgjsG1050"><svg xmlns="http://www.w3.org/2000/svg" viewBox="0 0 512 512" width="22" height="22"><path fill="#a0d468" d="M85.344 330.656h234.844V384H85.344z" class="colorA0D468 svgShape"></path><path fill="#8cc153" d="M138.672 373.344C132.781 373.344 128 378.11 128 384h21.344c0-5.891-4.782-10.656-10.672-10.656zm42.672 0c-5.891 0-10.672 4.766-10.672 10.656H192a10.65 10.65 0 0 0-10.656-10.656zm42.656 0A10.65 10.65 0 0 0 213.344 384h21.328c0-5.891-4.781-10.656-10.672-10.656zm42.672 0C260.781 373.344 256 378.11 256 384h21.344c0-5.891-4.782-10.656-10.672-10.656z" class="color8CC153 svgShape"></path><path fill="#ccd1d9" d="M341.531 352c0 5.891-4.781 10.656-10.672 10.656S320.187 357.89 320.187 352s4.781-10.656 10.672-10.656 10.672 4.765 10.672 10.656z" class="colorCCD1D9 svgShape"></path><path fill="#e6e9ed" d="M448 330.656H0v-213.32h448z" class="colorE6E9ED svgShape"></path><path fill="#434a54" d="M21.344 160c-5.891 0-10.672 4.773-10.672 10.664v32c0 5.891 4.781 10.672 10.672 10.672S32 208.555 32 202.664v-32C32 164.773 27.234 160 21.344 160zm0 74.664c-5.891 0-10.672 4.781-10.672 10.672v32.008c0 5.875 4.781 10.656 10.672 10.656S32 283.219 32 277.344v-32.008c0-5.891-4.766-10.672-10.656-10.672z" class="color434A54 svgShape"></path><path fill="#656d78" d="M10.672 106.664C4.781 106.664 0 111.445 0 117.336v288.008C0 411.219 4.781 416 10.672 416s10.672-4.781 10.672-10.656V117.336c0-5.891-4.782-10.672-10.672-10.672z" class="color656D78 svgShape"></path><path fill="#fc6e51" d="M64 96h448v256H64z" class="colorFC6E51 svgShape"></path><path fill="#e6e9ed" d="M170.672 149.336c0 5.891-4.781 10.664-10.672 10.664s-10.656-4.773-10.656-10.664 4.766-10.672 10.656-10.672 10.672 4.781 10.672 10.672z" class="colorE6E9ED svgShape"></path><path fill="#ccd1d9" d="M74.672 181.336C74.672 187.227 69.891 192 64 192s-10.656-4.773-10.656-10.664S58.109 170.664 64 170.664s10.672 4.781 10.672 10.672zm0 42.664c0 5.891-4.781 10.664-10.672 10.664S53.344 229.891 53.344 224 58.109 213.336 64 213.336 74.672 218.109 74.672 224zm0 42.672c0 5.891-4.781 10.672-10.672 10.672s-10.656-4.781-10.656-10.672S58.109 256 64 256s10.672 4.781 10.672 10.672z" class="colorCCD1D9 svgShape"></path><path fill="#e6e9ed" d="M384 298.656c0 5.906-4.766 10.688-10.656 10.688s-10.672-4.781-10.672-10.688c0-5.875 4.781-10.656 10.672-10.656S384 292.781 384 298.656z" class="colorE6E9ED svgShape"></path><path fill="#656d78" d="M352 224c0 47.133-38.203 85.344-85.328 85.344S181.344 271.133 181.344 224c0-47.125 38.203-85.336 85.328-85.336S352 176.875 352 224z" class="color656D78 svgShape"></path><path fill="#434a54" d="M288.422 205.68c5.438-6.406 12.703-13.289 21.609-20.375 8.203-6.531 16.312-12.062 22.234-15.883a85.739 85.739 0 0 0-16.109-14.945c-5.625 3.758-12.328 8.508-19.188 13.961-11.797 9.367-21.094 18.469-27.875 27.234-.688-8.383-.406-18.391.875-29.695 1.188-10.422 3-20.055 4.5-26.953a88.75 88.75 0 0 0-7.797-.359c-4.828 0-9.562.414-14.172 1.18-1.312 6.633-2.703 14.734-3.688 23.438-1.719 14.977-1.875 27.984-.469 38.977-6.406-5.445-13.281-12.719-20.375-21.617-6.531-8.211-12.047-16.312-15.875-22.234a86.294 86.294 0 0 0-14.953 16.109c3.766 5.617 8.516 12.328 13.969 19.188 9.375 11.797 18.469 21.102 27.234 27.875-8.391.688-18.391.406-29.703-.875-10.422-1.18-20.047-3.008-26.953-4.492a91.636 91.636 0 0 0-.344 7.789c0 4.828.406 9.562 1.172 14.172 6.641 1.312 14.734 2.695 23.438 3.695 8.219.945 15.844 1.414 22.859 1.414 5.781 0 11.156-.328 16.125-.961-5.453 6.414-12.719 13.289-21.625 20.375-8.219 6.539-16.312 12.055-22.234 15.883a86.046 86.046 0 0 0 16.109 14.953c5.625-3.766 12.328-8.516 19.188-13.969 11.797-9.367 21.094-18.461 27.875-27.234.688 8.383.406 18.391-.875 29.703-1.188 10.422-3 20.062-4.5 26.938 2.578.25 5.172.375 7.797.375 4.828 0 9.562-.406 14.172-1.188 1.312-6.625 2.688-14.734 3.688-23.438 1.719-14.969 1.875-27.984.453-38.977 6.422 5.445 13.297 12.719 20.391 21.617 6.531 8.203 12.047 16.312 15.875 22.234a86.543 86.543 0 0 0 14.953-16.109c-3.766-5.617-8.516-12.32-13.969-19.188-9.375-11.797-18.469-21.102-27.234-27.875 8.391-.688 18.391-.406 29.688.875 10.438 1.188 20.062 3.008 26.953 4.492a85.677 85.677 0 0 0-.813-21.961c-6.641-1.312-14.734-2.695-23.438-3.695-14.968-1.712-27.984-1.861-38.968-.454z" class="color434A54 svgShape"></path><path fill="#ccd1d9" d="M266.672 245.336c-11.766 0-21.328-9.57-21.328-21.336s9.562-21.328 21.328-21.328S288 212.234 288 224s-9.562 21.336-21.328 21.336z" class="colorCCD1D9 svgShape"></path><path fill="#e6e9ed" d="M266.672 192c-17.672 0-32 14.328-32 32s14.328 32 32 32 32-14.328 32-32-14.328-32-32-32zm0 42.664c-5.875 0-10.672-4.781-10.672-10.664s4.797-10.664 10.672-10.664 10.672 4.781 10.672 10.664-4.797 10.664-10.672 10.664z" class="colorE6E9ED svgShape"></path><path fill="#e9573f" d="M117.344 138.664c-5.891 0-10.672 4.781-10.672 10.672v149.32c0 5.906 4.781 10.688 10.672 10.688S128 304.562 128 298.656v-149.32c0-5.891-4.766-10.672-10.656-10.672zm298.656 0c-5.891 0-10.656 4.781-10.656 10.672v149.32c0 5.906 4.766 10.688 10.656 10.688s10.672-4.781 10.672-10.688v-149.32c0-5.891-4.781-10.672-10.672-10.672zm42.672 0c-5.891 0-10.672 4.781-10.672 10.672v149.32c0 5.906 4.781 10.688 10.672 10.688s10.672-4.781 10.672-10.688v-149.32c0-5.891-4.782-10.672-10.672-10.672zM64 96v256c0 5.891 4.781 10.656 10.672 10.656S85.344 357.891 85.344 352V96H64z" class="colorE9573F svgShape"></path><path fill="#434a54" d="M266.672 138.664c-47.125 0-85.328 38.211-85.328 85.336 0 47.133 38.203 85.344 85.328 85.344S352 271.133 352 224c0-47.125-38.203-85.336-85.328-85.336zm0 149.336c-35.297 0-64-28.711-64-64s28.703-64 64-64 64 28.711 64 64-28.703 64-64 64z" class="color434A54 svgShape"></path></svg></g></svg>