<svg width="416" height="416" viewBox="0 0 416 416" fill="none" xmlns="http://www.w3.org/2000/svg">
<path style="mix-blend-mode:multiply" d="M184.062 340.092C183.938 339.996 183.803 339.917 183.658 339.856L138.154 313.567C137.529 313.156 136.083 312.896 133.975 312.897C129.938 312.897 125.029 313.841 123.012 315.006L95.0679 331.139L140.877 357.589H155.495L183.438 341.456C184.338 340.935 184.506 340.46 184.062 340.092Z" fill="url(#paint0_linear_265_761)"/>
<path d="M123.011 314.229L168.82 340.677L140.877 356.81L95.0684 330.361L123.011 314.229Z" fill="#4141AA"/>
<path d="M167.22 332.871L140.933 348.047V354.929L167.218 339.753C168.862 338.804 170.199 336.489 170.199 334.591C170.199 332.694 168.862 331.922 167.219 332.871H167.22Z" fill="#D0D4F6"/>
<path d="M169.969 333.399C170.13 333.775 170.209 334.182 170.199 334.591C170.199 336.489 168.862 338.804 167.218 339.753L168.819 340.677C170.464 339.728 171.8 337.412 171.8 335.515C171.8 334.088 171.044 333.298 169.969 333.399Z" fill="url(#paint1_linear_265_761)"/>
<path d="M98.3252 323.448L140.933 348.047V354.929L98.3252 330.329V323.448Z" fill="#F7F7FC"/>
<path d="M123.011 306.568L168.82 333.016L140.877 349.149L95.0684 322.701L123.011 306.568Z" fill="#4141AA"/>
<path d="M124.612 307.492L167.22 332.092L140.877 347.301L98.271 322.701L124.612 307.492Z" fill="#5555C6"/>
<path d="M95.0684 322.701L140.877 349.149V349.928L95.0679 323.479L95.0684 322.701ZM95.0684 330.361L140.877 356.81V357.589L95.0679 331.139L95.0684 330.361Z" fill="#34318F"/>
<path d="M171.473 332.804L125.664 306.355C124.991 305.932 124.053 305.966 123.011 306.568L168.82 333.016L171.473 332.804Z" fill="url(#paint2_linear_265_761)"/>
<path d="M172.473 335.126C172.474 332.796 170.838 331.852 168.82 333.016L140.877 349.149V349.928L168.82 333.795C170.464 332.846 171.8 333.618 171.8 335.515C171.8 337.412 170.464 339.728 168.819 340.677L140.877 356.81V357.589L168.82 341.455C170.839 340.29 172.473 337.456 172.473 335.126Z" fill="#1E1C6B"/>
<path d="M134.871 322.105L141.91 326.169L129.017 333.613L121.978 329.548L134.871 322.105ZM143.377 327.016L144.781 327.826L138.335 331.548L136.93 330.737L143.377 327.016Z" fill="white"/>
<path d="M139.554 341.223L93.7451 314.776L122.026 298.447L167.836 324.895L139.554 341.223Z" fill="#CED3F8"/>
<path d="M164.466 319.177V324.992L137.954 340.299V334.484L164.466 319.177Z" fill="#F6F6FB"/>
<path d="M138.881 335.019L93.0703 308.571L122.026 291.854L167.836 318.302L138.881 335.019Z" fill="#F1F1F6"/>
<path d="M138.88 342.391L167.836 325.674V324.895L139.554 341.223L139.554 335.408L167.836 319.081V318.302L138.88 335.019V342.391Z" fill="#BBC0E6"/>
<path d="M128.023 317.465L123.476 314.839L133.558 309.019L138.105 311.645L128.023 317.465Z" fill="white"/>
<path d="M138.881 342.391L93.0703 315.943V308.571L138.881 335.019V342.391Z" fill="#CED3F8"/>
<path d="M101.903 319.379L100.331 318.47V314.426L101.903 315.334V319.379ZM105.61 321.519L104.038 320.61V316.567L105.61 317.475V321.519Z" fill="#BBC0E6"/>
<path style="mix-blend-mode:multiply" d="M138.88 342.391H152.584L168.82 333.016C169.818 332.441 170.722 332.382 171.38 332.749L163.48 328.189L138.88 342.391Z" fill="url(#paint3_linear_265_761)"/>
<path style="mix-blend-mode:multiply" d="M92.7502 208.21C92.5248 207.824 92.2658 207.46 91.9762 207.12C90.9244 206.077 93.3482 204.33 94.4414 203.699C94.4626 203.699 91.2547 201.845 91.2547 201.845L81.8241 201.857C81.3104 201.137 81.0334 200.276 81.0317 199.392L76.5067 199.391C76.5061 200.128 76.2043 201.777 74.9542 202.497C74.6729 202.66 74.3628 202.766 74.0409 202.811C73.4066 202.934 72.7781 203.084 72.1574 203.263C72.1305 203.263 72.1038 203.258 72.0784 203.249C71.4595 203.072 70.8333 202.922 70.2014 202.799C68.1806 202.494 67.7664 200.269 67.7701 199.378L63.2455 199.377C63.244 200.114 62.9432 201.764 61.6947 202.485C61.4123 202.646 61.102 202.753 60.7801 202.798C60.1465 202.921 59.5186 203.072 58.8981 203.249C56.8134 203.699 54.0857 202.465 52.9979 201.833L49.7892 203.686C50.8762 204.318 53.2783 206.065 52.2154 207.105C51.9213 207.445 51.6587 207.81 51.431 208.197C51.3076 208.424 51.1173 208.609 50.8858 208.725C49.6373 209.446 46.7897 209.615 45.5125 209.615L45.5039 212.235C47.0434 212.235 50.8832 212.481 51.3997 213.652C51.6227 214.039 51.8818 214.404 52.1737 214.742C53.2244 215.784 50.8017 217.53 49.7077 218.163L52.8957 220.017C53.0078 219.953 53.1442 219.88 53.2917 219.802L52.9182 220.017L62.3423 220.028C62.8459 220.744 63.1161 221.597 63.1161 222.472L80.8963 222.486C80.8963 222.484 85.3282 220.024 85.3282 220.024L91.152 220.03L94.3609 218.177C93.2718 217.545 90.8708 215.797 91.9335 214.755C92.1126 214.545 92.28 214.325 92.4347 214.096L95.4197 214.099L98.6271 212.246C98.6302 212.246 98.646 209.629 98.646 209.629C96.9952 209.693 93.2664 209.381 92.7502 208.21Z" fill="url(#paint4_linear_265_761)"/>
<path d="M52.4808 198.862C52.4787 197.845 50.6855 196.564 49.7891 196.042L49.8105 203.686C50.707 204.207 52.5007 205.486 52.5018 206.505L52.4808 198.862Z" fill="#F5F5FA"/>
<path d="M81.2031 203.686L81.1813 196.042C80.2753 196.564 78.4541 197.856 78.458 198.876L78.4785 206.52C78.4764 205.499 80.296 204.21 81.2031 203.686V203.686Z" fill="#B9BFE8"/>
<path d="M59.8156 207.643C62.9604 205.828 68.0317 205.828 71.1549 207.643C72.7035 208.543 73.4798 209.722 73.4847 210.904L73.4614 203.261C73.4563 202.081 72.682 200.902 71.1311 199.999C68.0086 198.186 62.9376 198.186 59.7952 199.999C58.2148 200.911 57.4265 202.109 57.4307 203.303L57.4516 210.947C57.4491 209.752 58.2376 208.555 59.8156 207.643Z" fill="url(#paint5_linear_265_761)"/>
<path d="M52.8955 212.373L49.7075 210.52L49.7306 218.163L52.918 220.017L52.8955 212.373Z" fill="#CCD2FA"/>
<path d="M81.1216 218.163L81.1014 210.52L77.8901 212.373L77.9119 220.017L81.1216 218.163Z" fill="#B9BFE8"/>
<path d="M58.8324 218.599C59.4513 218.778 60.078 218.929 60.7105 219.051C62.7064 219.35 63.1341 221.525 63.1379 222.438L63.1159 214.795C63.1121 213.881 62.6826 211.707 60.6901 211.407C60.0572 211.286 59.4301 211.136 58.8107 210.958C57.0141 210.344 53.9892 211.741 52.8955 212.373L52.918 220.017C54.0115 219.383 57.0356 217.986 58.8324 218.599Z" fill="url(#paint6_linear_265_761)"/>
<path d="M69.222 219.36C69.5029 219.201 69.811 219.096 70.1304 219.051C70.7627 218.928 71.3894 218.778 72.0087 218.601C73.8177 217.986 76.8255 219.383 77.912 220.017L77.8902 212.373C76.8038 211.742 73.7957 210.344 71.9888 210.959C71.3692 211.135 70.7424 211.285 70.1099 211.407C69.7899 211.453 69.4812 211.558 69.1995 211.717C67.968 212.429 67.7076 214.054 67.6377 214.828L67.6584 222.471C67.7291 221.697 67.9898 220.071 69.222 219.36Z" fill="url(#paint7_linear_265_761)"/>
<path d="M52.1737 207.099C53.2244 208.142 50.8017 209.889 49.7077 210.52L52.8957 212.373C53.9894 211.741 57.0143 210.344 58.8108 210.958C59.4303 211.136 60.0574 211.286 60.6902 211.407C62.7076 211.709 63.1228 213.937 63.1161 214.828H67.6378C67.7077 214.054 67.9681 212.429 69.1995 211.717C69.4813 211.558 69.79 211.453 70.11 211.407C70.7425 211.285 71.3693 211.135 71.9889 210.959C73.7958 210.344 76.8038 211.742 77.8903 212.373L81.1016 210.52C80.0123 209.89 77.6087 208.142 78.6721 207.099C78.9664 206.76 79.2295 206.395 79.4583 206.009C79.5814 205.781 79.7716 205.597 80.0032 205.481C81.2492 204.761 84.0983 204.591 85.3696 204.593L85.3851 201.972C83.7335 202.038 80.0053 201.725 79.4886 200.553C79.2642 200.168 79.0055 199.804 78.7156 199.465C77.6646 198.42 80.0873 196.674 81.1813 196.042L77.9926 194.189C76.8994 194.821 73.8737 196.218 72.0784 195.607C71.4666 195.431 70.841 195.281 70.2014 195.157C68.1806 194.851 67.7664 192.625 67.7701 191.736L63.2455 191.733C63.244 192.472 62.9432 194.122 61.6947 194.843C61.412 195.003 61.1018 195.109 60.7801 195.156C60.1464 195.278 59.5185 195.429 58.8981 195.606C56.8134 196.056 54.0857 194.821 52.9979 194.189L49.7892 196.042C50.8762 196.674 53.2783 198.421 52.2154 199.463C51.9211 199.802 51.6585 200.167 51.431 200.554C51.3074 200.782 51.1172 200.966 50.8858 201.083C49.6373 201.802 46.7897 201.972 45.5125 201.972L45.5039 204.593C47.0434 204.591 50.8832 204.838 51.3997 206.009C51.6226 206.396 51.8818 206.761 52.1737 207.099ZM59.7948 199.999C62.9375 198.186 68.0087 198.186 71.1307 199.999C74.2498 201.814 74.2372 204.752 71.095 206.568C67.9557 208.38 62.8803 208.379 59.7599 206.565C56.6384 204.749 56.6555 201.814 59.7948 199.999Z" fill="#F6F6FB"/>
<path d="M49.7077 210.52C50.8019 209.889 53.2244 208.142 52.1737 207.099C51.8818 206.761 51.6227 206.396 51.3997 206.009C50.8832 204.838 47.0434 204.591 45.5039 204.593L45.5259 212.235C46.9339 212.23 48.3381 212.381 49.7131 212.684L49.7077 210.52Z" fill="#CCD2FA"/>
<path d="M67.6589 222.471L67.6379 214.828H63.1162L63.1382 222.472L67.6589 222.471Z" fill="#B9BFE8"/>
<path d="M85.3916 212.235L85.3699 204.593C84.0983 204.591 81.2492 204.761 80.0035 205.481C79.7718 205.597 79.5815 205.781 79.4583 206.009C79.2296 206.395 78.9665 206.76 78.6721 207.099C77.6087 208.142 80.0123 209.89 81.1016 210.52L81.1071 212.716C82.512 212.392 83.9495 212.231 85.3914 212.235H85.3916Z" fill="url(#paint8_linear_265_761)"/>
<path d="M204.679 176.667C205.035 175.783 204.623 174.813 203.433 174.126L184.08 162.953C182.249 161.896 179.255 161.896 177.424 162.953L139.924 184.603C138.094 185.659 138.094 187.389 139.924 188.447C139.924 188.447 159.45 199.713 159.538 199.756L156.557 200.829H161.345C162.955 200.839 164.538 200.422 165.934 199.619L181.496 190.635H213.645V176.667H204.679Z" fill="url(#paint9_linear_265_761)"/>
<path d="M178.033 160.334C176.201 159.278 173.207 159.278 171.376 160.334L133.876 181.985C132.046 183.042 132.046 184.77 133.876 185.828L153.23 197.001C155.061 198.058 158.056 198.058 159.886 197.001L197.386 175.35C199.217 174.294 199.217 172.564 197.386 171.508L178.033 160.334Z" fill="#F7F7FC"/>
<g style="mix-blend-mode:multiply">
<path d="M181.428 173.627L181.102 173.632L156.909 187.6H176.17L197.386 175.35C198.214 174.872 198.664 174.256 198.742 173.627L181.428 173.627Z" fill="#DCE1F4"/>
</g>
<path d="M197.386 175.35L159.886 197.001C158.056 198.058 155.06 198.058 153.229 197.001L133.876 185.828C132.998 185.32 132.545 184.657 132.51 183.988C132.506 183.988 132.506 186.937 132.506 186.937C132.504 187.635 132.959 188.333 133.877 188.863L153.23 200.037C155.06 201.094 158.056 201.094 159.886 200.037L197.386 178.385C198.337 177.837 198.79 177.106 198.752 176.382V173.511C198.718 174.18 198.266 174.843 197.386 175.35L197.386 175.35Z" fill="url(#paint10_linear_265_761)"/>
<path d="M178.425 167.768C177.376 164.48 176.867 161.045 176.916 157.594L174.253 156.057C174.253 156.736 174.254 157.774 174.343 159.079L152.723 171.561C152.723 173.843 152.726 180.688 156.909 187.6L181.102 173.632L178.425 167.768Z" fill="#BDC1E4"/>
<path d="M176.916 157.593L152.724 171.561L150.061 170.024L174.253 156.057L176.916 157.593Z" fill="#C6B9BE"/>
<path d="M156.909 187.6C152.726 180.688 152.723 173.843 152.723 171.561L150.061 170.024C149.98 175.38 151.104 180.684 153.351 185.546L156.909 187.6Z" fill="#D0D4F6"/>
<g style="mix-blend-mode:multiply">
<path d="M152.96 175.939C153.127 177.341 153.391 178.73 153.749 180.096L177.942 166.127C177.585 164.761 177.322 163.372 177.154 161.97L152.96 175.939Z" fill="#DCE1F4"/>
</g>
<path d="M216.973 62.8659C216.972 60.7514 215.475 59.8871 213.645 60.9438L123.955 112.726C122.125 113.783 120.626 116.377 120.626 118.491V178.609L216.972 122.984L216.973 62.8659Z" fill="#1E1C6B"/>
<path d="M210.036 58.8612L120.346 110.644C118.515 111.7 117.018 114.294 117.018 116.408V176.527L120.626 178.609V118.491C120.626 116.377 122.125 113.783 123.955 112.726L213.645 60.9438C214.392 60.5125 215.079 60.4064 215.637 60.5692L212.751 58.9259C212.147 58.2901 211.153 58.215 210.036 58.8612Z" fill="url(#paint11_linear_265_761)"/>
<path d="M120.626 178.609V190.764C120.626 192.877 122.125 193.741 123.955 192.685L213.645 140.902C215.475 139.846 216.973 137.252 216.973 135.138L216.972 122.984L120.626 178.609Z" fill="#BDC1E4"/>
<path d="M120.626 190.764V178.609L117.018 176.527V188.68C117.018 189.744 117.397 190.49 118.006 190.835L121.466 192.818C120.946 192.439 120.626 191.736 120.626 190.764Z" fill="#D0D4F6"/>
<path d="M213.644 124.906L123.955 176.688V116.569L213.645 64.787L213.644 124.906Z" fill="white"/>
<path d="M168.799 150.797L123.955 176.688V116.569L168.799 90.6781V150.797Z" fill="white"/>
<path d="M213.643 124.905L168.798 150.797V90.6781L213.643 64.7864V124.905Z" fill="#F6F6FB"/>
<path d="M135.873 114.408L157.918 101.68L157.918 107.076L135.873 119.804L135.873 114.408Z" fill="#6D25DC"/>
<path d="M146.209 157.109L147.582 156.316V157.901L146.209 158.694V157.109ZM143.234 158.826L144.607 158.034V159.619L143.234 160.411V158.826ZM150.557 154.599L149.183 155.392V156.977L150.556 156.184L150.557 154.599Z" fill="#4141AA"/>
<path d="M134.379 124.264L163.572 107.409L163.571 108.421L134.379 125.275V124.264ZM130.218 129.139L163.571 109.883V110.894L130.218 130.151V129.139ZM130.218 131.613L163.571 112.356V113.368L130.218 132.624V131.613ZM130.218 134.086L163.571 114.83V115.841L130.218 135.098V134.086ZM130.218 136.559L163.571 117.303V118.315L130.218 137.571V136.559ZM130.218 139.033L163.571 119.776V120.788L130.218 140.044V139.033ZM130.218 141.506L156.724 126.203V127.214L130.218 142.518V141.506ZM134.379 144.463L147.458 136.911V137.923L134.379 145.475V144.463ZM130.218 149.338L147.458 139.385V140.397L130.218 150.35V149.338ZM130.218 151.812L147.458 141.858V142.87L130.218 152.823V151.812ZM151.645 134.494L163.571 127.609V128.62L151.645 135.507V134.494ZM149.788 138.04L163.571 130.082V131.094L149.788 139.052V138.04ZM149.788 140.513L163.571 132.555V133.567L149.788 141.524V140.513ZM130.218 154.285L147.458 144.331V145.344L130.218 155.297V154.285ZM130.218 156.758L147.458 146.805V147.817L130.218 157.77V156.758ZM130.218 159.231L147.458 149.278V150.29L130.218 160.243V159.231ZM130.218 161.705L143.174 154.225L143.174 155.237L130.218 162.717V161.705ZM178.328 120.674L207.521 103.819L207.52 104.831L178.328 121.685V120.674ZM174.167 125.549L207.52 106.293V107.304L174.167 126.561V125.549ZM174.167 128.023L207.52 108.766V109.778L174.167 129.034V128.023ZM174.167 130.496L207.52 111.239V112.251L174.167 131.508V130.496ZM174.167 132.969L207.52 113.713V114.724L174.167 133.981V132.969ZM174.167 135.443L207.52 116.186V117.198L174.167 136.454V135.443ZM174.167 137.916L200.673 122.613V123.624L174.167 138.927V137.916Z" fill="#D0D4F6"/>
<path d="M178.876 94.982C178.876 93.28 180.082 91.1919 181.557 90.3405L199.913 79.7421C201.386 78.8917 202.592 79.5873 202.592 81.2891V98.3214C202.592 100.024 201.386 102.112 199.913 102.963L181.557 113.562C180.082 114.413 178.876 113.717 178.876 112.016V94.982Z" fill="#CED3F8"/>
<path d="M192.351 90.1078C192.207 90.1671 192.081 90.2613 191.983 90.3817C191.886 90.5022 191.819 90.6451 191.791 90.7976L189.189 103.155C189.121 103.474 189.264 103.681 189.506 103.619C189.649 103.559 189.775 103.465 189.873 103.345C189.97 103.224 190.037 103.082 190.066 102.929L192.668 90.5719C192.734 90.253 192.593 90.0451 192.351 90.1078ZM188.762 94.412C188.62 94.2549 188.337 94.3576 188.129 94.6424L183.769 100.624C183.65 100.782 183.581 100.972 183.572 101.17C183.572 101.343 183.646 101.463 183.769 101.49L188.129 102.437C188.337 102.481 188.62 102.256 188.762 101.935C188.904 101.615 188.853 101.317 188.646 101.272L184.83 100.444L188.646 95.2103C188.853 94.9266 188.904 94.5683 188.762 94.412ZM198.403 92.1748L194.043 91.2287C193.836 91.1828 193.552 91.4078 193.41 91.7288C193.267 92.0503 193.319 92.3472 193.527 92.3923L197.342 93.2199L193.527 98.4537C193.32 98.7377 193.267 99.0957 193.41 99.2521C193.552 99.4092 193.835 99.3064 194.043 99.0219L198.403 93.0408C198.522 92.8825 198.591 92.6917 198.6 92.4935C198.6 92.3203 198.526 92.2015 198.403 92.1748Z" fill="white"/>
<path d="M139.894 139.464L141.777 140.551L138.175 142.631L136.292 141.544L139.894 139.464Z" fill="#6D25DC"/>
<path d="M141.777 163.249V140.551L138.175 142.631V136.562L132.527 145.891L105.021 161.772V184.469L141.777 163.249Z" fill="#6D25DC"/>
<g style="mix-blend-mode:multiply">
<path d="M136.438 151.557L114.108 164.449V163.561L136.438 150.668V151.557ZM136.438 154.555L110.36 169.611V168.722L136.438 153.666V154.555ZM136.438 157.553L110.361 172.609V171.72L136.438 156.664V157.553ZM130.596 163.924L110.36 175.607V174.719L130.596 163.035V163.924Z" fill="#DFE4F4"/>
</g>
<path d="M103.139 160.685L105.021 161.772V184.469L103.139 183.383V160.685Z" fill="#6D25DC"/>
<path d="M130.645 144.805L132.528 145.891L105.021 161.772L103.139 160.685L130.645 144.805Z" fill="#6D25DC"/>
<path d="M136.292 135.476L138.175 136.562L132.528 145.891L130.645 144.804L136.292 135.476Z" fill="#6D25DC"/>
<path d="M236.382 159.886C234.712 160.85 233.757 161.855 233.728 162.782C233.694 163.811 234.768 164.741 236.606 165.416C244.163 168.372 248.535 171.044 256.642 177.107C260.164 179.893 265.929 181.016 269.456 178.982C271.099 178.034 271.919 177.56 273.562 176.611C275.325 175.592 276.145 174.061 276.182 172.439C276.22 170.814 275.475 169.097 273.702 167.679C265.978 161.42 260.79 158.567 253.524 155.813C250.033 154.549 244.016 155.479 240.488 157.516C238.846 158.463 238.026 158.938 236.382 159.886V159.886Z" fill="#F6F6FB"/>
<path d="M236.606 165.416C244.163 168.372 248.535 171.044 256.642 177.107C260.164 179.893 265.929 181.016 269.456 178.982C271.099 178.034 271.919 177.56 273.562 176.611C275.325 175.592 276.145 174.061 276.182 172.439V174.543C276.189 174.667 276.189 174.79 276.182 174.914V174.982H276.177C276.071 176.23 275.203 177.463 273.552 178.417L269.446 180.788C265.918 182.823 260.201 182.825 256.672 180.788L236.372 169.065C234.585 168.035 233.708 166.679 233.729 165.325H233.728V162.782C233.694 163.811 234.768 164.741 236.606 165.416Z" fill="url(#paint12_linear_265_761)"/>
<path d="M249.578 162.962C250.384 162.501 250.409 161.824 249.611 161.552C248.813 161.282 247.483 161.565 246.679 162.02C245.954 162.426 245.905 162.936 246.704 163.21C247.66 163.483 248.683 163.395 249.578 162.962Z" fill="#BBC0E6"/>
<path style="mix-blend-mode:multiply" d="M384.638 195.547H298.159L264.418 223.714H292.678L284.787 228.27H298.207L298.159 228.296H384.638V195.547Z" fill="url(#paint13_linear_265_761)"/>
<path d="M258.263 220.161L258.264 167.752L289.475 149.731V202.14L258.263 220.161Z" fill="#6D25DC"/>
<path d="M292.998 155.959L287.569 152.825L258.991 169.324L264.419 172.458L292.998 155.959Z" fill="#F7F7FC"/>
<path d="M264.418 223.714L264.419 171.305L295.63 153.285V205.694L264.418 223.714Z" fill="#6D25DC"/>
<path d="M257.537 167.332C257.537 167.331 288.749 149.312 288.749 149.312L289.475 149.731L258.99 167.332L264.419 170.465L294.903 152.865L295.63 153.284L264.418 171.304L257.537 167.332Z" fill="#6D25DC"/>
<path d="M274.591 194.467V188.807L285.458 182.532V188.192L274.591 194.467Z" fill="white"/>
<path d="M257.537 219.741L257.537 167.332L264.418 171.305V223.714L257.537 219.741Z" fill="#6D25DC"/>
<path d="M258.885 210.249L258.885 178.381L263.07 180.797V212.664L258.885 210.249Z" fill="#F7F7FC"/>
<path d="M258.885 181.372L258.885 178.381L263.07 180.797V183.788L258.885 181.372ZM258.885 210.249L258.885 207.257L263.07 209.673V212.664L258.885 210.249ZM259.461 192.896L262.495 194.647V198.15L259.462 196.398L259.461 192.896Z" fill="#D0D4F6"/>
<path d="M272.643 219.805L272.643 165.955L303.854 147.934V201.784L272.643 219.805Z" fill="#1E1C6B"/>
<path d="M307.378 154.162L301.949 151.028L273.37 167.528L278.798 170.661L307.378 154.162Z" fill="#D0D4F6"/>
<path d="M278.797 223.358L278.798 169.508L310.009 151.488V205.338L278.797 223.358Z" fill="#1E1C6B"/>
<path d="M271.916 165.534L303.127 147.514L303.854 147.934L273.37 165.534L278.798 168.668L309.283 151.068L310.009 151.487L278.797 169.507L271.916 165.534Z" fill="#4141AA"/>
<path d="M289.333 194.765V189.104L300.201 182.83V188.49L289.333 194.765Z" fill="#BDC1E4"/>
<path d="M271.916 219.385L271.916 165.534L278.797 169.507V223.358L271.916 219.385Z" fill="#5555C6"/>
<path d="M277.711 195.805C277.711 194.304 276.657 192.478 275.357 191.727C274.056 190.976 273.002 191.585 273.002 193.086C273.002 194.589 274.056 196.414 275.357 197.165C276.657 197.916 277.711 197.307 277.711 195.805ZM277.711 181.149C277.711 179.647 276.657 177.821 275.357 177.07C274.056 176.32 273.002 176.928 273.002 178.43C273.002 179.931 274.056 181.757 275.357 182.508C276.657 183.259 277.711 182.65 277.711 181.149ZM277.711 210.463C277.711 208.961 276.657 207.135 275.357 206.385C274.056 205.633 273.002 206.242 273.002 207.744C273.002 209.245 274.056 211.071 275.357 211.823C276.657 212.573 277.711 211.964 277.711 210.463Z" fill="#F7F7FC"/>
<path d="M279.072 164.029V224.083L311.179 205.546V145.491L279.072 164.029Z" fill="#BDC1E4"/>
<path d="M314.89 152.051L309.172 148.75L279.072 166.128L284.789 169.43L314.89 152.051Z" fill="#F7F7FC"/>
<path d="M284.789 168.214L284.788 228.27L317.662 209.288L317.661 149.235L284.789 168.214Z" fill="#BDC1E4"/>
<path d="M277.54 164.029L310.413 145.05L311.179 145.491L279.072 164.029L284.789 167.33L316.897 148.792L317.661 149.235L284.789 168.214L277.54 164.029Z" fill="#D0D4F6"/>
<path d="M295.884 188.854L295.885 194.816L307.331 188.207V182.245L295.884 188.854Z" fill="white"/>
<path d="M277.541 164.029V224.084L284.788 228.27L284.789 168.214L277.541 164.029Z" fill="#DEE2F9"/>
<path d="M277.541 213.582V218.466L284.788 222.652V217.767L277.541 213.582ZM277.541 169.578V174.464L284.788 178.649V173.764L277.541 169.578Z" fill="#F7F7FC"/>
<path d="M286.128 216.994V221.879L284.788 222.652V217.767L286.128 216.994ZM286.128 172.99V177.876L284.788 178.649V173.764L286.128 172.99Z" fill="#BDC1E4"/>
<path d="M295.098 169.757L293.376 170.759V173.023C293.641 173.299 293.945 173.535 294.278 173.723C296.327 174.905 299.647 174.906 301.696 173.723L301.696 219.639L323.326 207.152V153.46L295.098 169.757Z" fill="#20196F"/>
<path d="M294.963 171.712C294.963 171.712 320.34 157.06 321.644 156.307L327.693 159.8C326.39 160.553 301.012 175.204 301.012 175.204C299.344 176.168 296.63 176.168 294.963 175.204C293.295 174.242 293.295 172.675 294.963 171.712Z" fill="#F6F6FB"/>
<path d="M301.697 227.414V173.723L330.059 157.347V211.039L301.697 227.414Z" fill="#20196F"/>
<path d="M294.278 173.723C292.231 172.54 292.23 170.623 294.278 169.44L322.641 153.065L323.326 153.46L294.963 169.835C293.295 170.799 293.295 172.365 294.963 173.328C296.63 174.291 299.344 174.291 301.013 173.328L329.376 156.952L330.059 157.347L301.696 173.723C299.647 174.906 296.327 174.905 294.278 173.723V173.723Z" fill="#5652CC"/>
<path d="M294.278 173.723C296.327 174.905 299.647 174.906 301.696 173.723L301.697 227.414C299.647 228.598 296.326 228.598 294.278 227.414C293.254 226.824 292.742 226.05 292.742 225.274V171.582C292.742 172.357 293.255 173.132 294.278 173.723V173.723Z" fill="url(#paint14_linear_265_761)"/>
<path d="M309.334 200.284V192.033L322.422 184.478V192.729L309.334 200.284Z" fill="#BBC0E6"/>
<g style="mix-blend-mode:multiply">
<path d="M300.414 203.111V200.083C298.435 200.679 295.939 200.498 294.278 199.54C293.648 199.218 293.148 198.688 292.865 198.039C292.785 197.834 292.744 197.617 292.742 197.398C292.73 197.398 292.742 200.424 292.742 200.424C292.739 201.2 293.254 201.975 294.278 202.566C295.939 203.525 298.435 203.706 300.414 203.111ZM294.278 179.651C293.647 179.33 293.148 178.8 292.865 178.151C292.785 177.946 292.744 177.729 292.742 177.509V178.793C292.739 179.568 293.254 180.343 294.278 180.934C296.327 182.117 299.647 182.117 301.695 180.934V179.651C299.647 180.833 296.327 180.833 294.278 179.651ZM294.278 183.205C293.648 182.884 293.148 182.354 292.865 181.705C292.786 181.5 292.744 181.283 292.742 181.063V182.347C292.74 183.123 293.255 183.897 294.278 184.488C296.327 185.672 299.647 185.672 301.696 184.488V183.206C299.648 184.388 296.327 184.388 294.278 183.205ZM294.279 216.648C293.648 216.328 293.148 215.797 292.866 215.148C292.787 214.943 292.745 214.726 292.743 214.507V215.79C292.741 216.565 293.255 217.34 294.279 217.931C296.328 219.114 299.648 219.114 301.696 217.931V216.648C299.648 217.831 296.328 217.83 294.279 216.648ZM294.28 220.203C293.649 219.882 293.149 219.351 292.866 218.703C292.787 218.498 292.745 218.281 292.743 218.062V219.345C292.741 220.12 293.255 220.895 294.28 221.487C296.328 222.668 299.648 222.669 301.697 221.487V220.203C299.649 221.386 296.328 221.386 294.28 220.203Z" fill="#E2DEDE"/>
</g>
<path style="mix-blend-mode:multiply" d="M344.259 224.364H334.401L365.433 242.28L313.281 272.39H323.137L375.29 242.28L344.259 224.364Z" fill="url(#paint15_linear_265_761)"/>
<path d="M322.787 216.8L270.634 246.91L313.28 271.532L365.433 241.421L322.787 216.8Z" fill="#6D25DC"/>
<path d="M313.365 266.486V270.625L272.206 246.862V242.723L313.365 266.486Z" fill="#F7F7FC"/>
<path d="M363.863 237.331V241.471L313.365 270.625V266.486L363.863 237.331Z" fill="#BDC1E4"/>
<path d="M322.787 211.803L270.634 241.913L313.28 266.535L365.433 236.424L322.787 211.803Z" fill="#6D25DC"/>
<path d="M270.634 247.769L313.281 272.39V271.532L271.378 247.34V243.201L313.281 267.393V266.535L270.634 241.913V247.769Z" fill="#6D25DC"/>
<path d="M313.281 266.535L365.433 236.424V237.283L313.281 267.393V266.535ZM313.281 271.532L365.433 241.421V242.28L313.281 272.39V271.532Z" fill="#6D25DC"/>
<g style="mix-blend-mode:multiply">
<path d="M317.139 220.261L285.285 238.652L318.928 258.076L350.782 239.686L317.139 220.261Z" fill="#F4F4F4"/>
</g>
<path d="M293.515 243.403L293.565 233.872L285.285 238.652L293.515 243.403Z" fill="#6D25DC"/>
<path d="M315.273 233.702L314.241 234.298L326.47 241.359L327.502 240.763L315.273 233.702ZM310.733 238.827L309.7 239.423L317.594 243.981L318.627 243.384L310.733 238.827Z" fill="#F2EEED"/>
<path d="M271.378 247.34L272.206 246.862V243.679L271.378 243.201V247.34Z" fill="#6D25DC"/>
<path style="mix-blend-mode:multiply" d="M343.196 226.932C336.918 223.307 328.374 221.792 320.195 222.38C326.094 222.803 331.802 224.318 336.331 226.932C347.139 233.172 347.138 243.289 336.331 249.528C331.802 252.144 326.093 253.658 320.194 254.08C328.372 254.668 336.917 253.153 343.196 249.528C354.004 243.289 354.004 233.172 343.196 226.932Z" fill="url(#paint16_linear_265_761)"/>
<path style="mix-blend-mode:multiply" d="M305.883 226.932C310.412 224.318 316.121 222.802 322.019 222.38C313.84 221.792 305.296 223.307 299.017 226.932C288.209 233.172 288.209 243.288 299.017 249.528C305.296 253.154 313.84 254.668 322.018 254.08C316.12 253.658 310.412 252.142 305.883 249.528C295.075 243.288 295.075 233.172 305.883 226.932Z" fill="url(#paint17_linear_265_761)"/>
<path d="M297.369 226.876C286.508 233.147 286.509 243.314 297.37 249.584C308.23 255.854 325.839 255.854 336.7 249.584C347.56 243.314 347.561 233.147 336.7 226.876C325.84 220.606 308.23 220.606 297.369 226.876ZM333.455 247.711C324.386 252.946 309.683 252.946 300.614 247.711C291.546 242.474 291.545 233.985 300.613 228.749C309.683 223.514 324.386 223.514 333.456 228.749C342.524 233.986 342.524 242.475 333.455 247.711Z" fill="#AFA3A8"/>
<path d="M333.455 222.361C324.386 217.126 309.682 217.126 300.613 222.361C294.661 225.798 292.616 230.636 294.478 235.036C295.453 232.733 297.498 230.548 300.613 228.749C309.682 223.514 324.386 223.514 333.455 228.749C336.571 230.548 338.616 232.733 339.591 235.035C341.452 230.636 339.407 225.798 333.455 222.361Z" fill="#1E1C6B"/>
<g style="mix-blend-mode:screen">
<path d="M300.565 224.353C309.632 219.119 324.334 219.118 333.401 224.353C342.469 229.589 342.469 238.076 333.401 243.312C324.334 248.546 309.633 248.546 300.565 243.312C291.497 238.076 291.497 229.589 300.565 224.353Z" fill="#6B6B6B"/>
</g>
<g style="mix-blend-mode:screen">
<path d="M302.897 225.289C304.873 224.032 308.158 223.89 310.235 224.971C312.312 226.054 312.395 227.951 310.419 229.209C308.443 230.467 305.158 230.609 303.08 229.526C301.004 228.444 300.921 226.547 302.897 225.289ZM312.855 222.985C313.315 222.726 313.83 222.579 314.358 222.556C314.886 222.533 315.412 222.635 315.893 222.853C316.752 223.302 316.786 224.087 315.969 224.607C315.509 224.866 314.994 225.013 314.466 225.036C313.938 225.059 313.412 224.958 312.931 224.739C312.071 224.29 312.036 223.505 312.855 222.984V222.985Z" fill="#6A6AE2"/>
</g>
<g style="mix-blend-mode:screen">
<path d="M300.565 225.302C309.632 220.068 324.334 220.066 333.401 225.302C337.726 227.799 339.983 231.036 340.182 234.306C340.4 230.72 338.144 227.092 333.401 224.353C324.334 219.118 309.632 219.119 300.565 224.353C295.822 227.092 293.565 230.72 293.784 234.306C293.983 231.036 296.24 227.799 300.565 225.302Z" fill="#C6B9BE"/>
</g>
<path d="M297.369 220.488C286.508 226.759 286.509 236.925 297.37 243.196C308.23 249.466 325.839 249.466 336.7 243.196C347.56 236.925 347.561 226.759 336.7 220.488C325.84 214.217 308.23 214.217 297.369 220.488ZM333.455 241.322C324.386 246.558 309.683 246.558 300.614 241.322C291.546 236.087 291.545 227.597 300.613 222.361C309.683 217.126 324.386 217.126 333.456 222.361C342.524 227.597 342.524 236.087 333.455 241.322Z" fill="#4141AA"/>
<path d="M336.699 243.196C325.839 249.466 308.23 249.466 297.37 243.196C292.01 240.101 289.299 236.057 289.23 232.001V238.071C289.16 242.234 291.87 246.409 297.37 249.584C308.23 255.854 325.839 255.854 336.7 249.584C342.2 246.409 344.909 242.234 344.838 238.072V232.029C344.757 236.076 342.048 240.108 336.699 243.196Z" fill="url(#paint18_linear_265_761)"/>
<path d="M297.37 244.049C296.685 243.654 296.044 243.244 295.446 242.819L290.768 245.52L294.822 247.86L299.5 245.159C298.765 244.814 298.055 244.444 297.37 244.049Z" fill="#D0D4F6"/>
<path d="M294.821 252.542L299.499 249.84V245.159L294.821 247.86V252.542Z" fill="#BDC1E4"/>
<path d="M296.583 251.218C296.583 248.802 294.888 245.864 292.795 244.657C291.707 244.028 290.73 243.997 290.039 244.446C290.037 244.442 263.074 260.01 263.074 260.01L268.228 269.37L295.191 253.802C296.04 253.49 296.583 252.583 296.583 251.218Z" fill="url(#paint19_linear_265_761)"/>
<g style="mix-blend-mode:multiply">
<path d="M294.496 252.418C294.496 250.001 292.801 247.064 290.709 245.857C289.621 245.228 288.643 245.196 287.952 245.646C287.951 245.641 286.164 246.673 286.164 246.673C286.855 246.225 287.832 246.257 288.92 246.884C291.012 248.092 292.708 251.03 292.708 253.446C292.708 254.535 292.359 255.326 291.787 255.762L293.105 255.001C293.954 254.689 294.496 253.783 294.496 252.418Z" fill="#CCCCCC"/>
</g>
<path d="M268.763 269.06C269.298 268.615 269.619 267.837 269.619 266.786C269.619 264.37 267.923 261.433 265.832 260.225C264.839 259.651 263.939 259.578 263.264 259.909C262.628 260.256 262.069 260.73 261.621 261.3C261.174 261.87 260.847 262.526 260.661 263.226C260.475 263.927 260.433 264.658 260.538 265.375C260.643 266.092 260.893 266.78 261.272 267.398C261.652 268.016 262.153 268.55 262.745 268.968C263.337 269.386 264.008 269.679 264.717 269.83C265.426 269.98 266.158 269.985 266.869 269.844C267.58 269.702 268.255 269.418 268.853 269.008L268.763 269.06Z" fill="url(#paint20_radial_265_761)"/>
<path style="mix-blend-mode:multiply" d="M208.144 232.626L205.284 231.955L200.104 232.626L197.782 233.965L237.623 256.968L240.483 257.638L245.665 256.968L247.985 255.628L208.144 232.626Z" fill="url(#paint21_linear_265_761)"/>
<path d="M193.599 229.051C193.59 229.056 197.782 233.965 197.782 233.965L200.104 227.982L194.725 227.2L194.557 227.175C194.445 227.185 194.338 227.22 194.243 227.278C194.016 227.426 193.828 227.625 193.693 227.859C193.558 228.092 193.48 228.355 193.465 228.625C193.456 228.778 193.504 228.93 193.599 229.051Z" fill="url(#paint22_linear_265_761)"/>
<path d="M194.557 227.175C194.445 227.185 194.338 227.22 194.243 227.278C194.016 227.426 193.828 227.625 193.693 227.859C193.558 228.092 193.48 228.355 193.465 228.625C193.457 228.778 193.504 228.93 193.599 229.051C193.591 229.056 191.622 226.749 191.622 226.749L194.557 227.175Z" fill="url(#paint23_linear_265_761)"/>
<path d="M196.621 232.313L236.461 255.316L237.624 252.324L197.782 229.322L196.621 232.313Z" fill="#6D25DC"/>
<path d="M197.782 233.965L237.624 256.968L236.461 255.316L196.621 232.313L197.782 233.965Z" fill="#6D25DC"/>
<path d="M197.782 229.322L237.623 252.324L239.944 250.984L200.104 227.982L197.782 229.322Z" fill="#6D25DC"/>
<path d="M239.944 255.627L241.105 252.636L239.944 250.984L237.623 252.324L236.461 255.316L237.623 256.968L239.944 255.627Z" fill="#B9BFE8"/>
<path d="M239.551 253.531C239.551 253.042 239.207 252.844 238.783 253.088C238.56 253.234 238.373 253.43 238.24 253.662C238.106 253.893 238.029 254.152 238.015 254.419C238.015 254.909 238.358 255.106 238.783 254.862C239.007 254.717 239.193 254.52 239.326 254.289C239.46 254.058 239.537 253.798 239.551 253.531Z" fill="#231574"/>
<path d="M253.555 283.174C251.14 281.78 248.952 281.651 247.373 282.569L244.315 284.346C245.895 283.428 248.083 283.558 250.498 284.951C255.296 287.722 259.174 294.437 259.157 299.949C259.15 302.688 258.183 304.616 256.623 305.522L259.68 303.745C261.24 302.838 262.207 300.911 262.215 298.173C262.231 292.661 258.353 285.944 253.555 283.174Z" fill="url(#paint24_linear_265_761)"/>
<path d="M250.498 284.951C245.7 282.182 241.796 284.405 241.78 289.916C241.765 295.43 245.644 302.147 250.44 304.916C255.239 307.687 259.142 305.463 259.157 299.949C259.174 294.437 255.296 287.722 250.498 284.951Z" fill="#CED3F8"/>
<path d="M250.474 287.449C249.613 286.952 248.912 287.35 248.909 288.34C248.938 288.879 249.093 289.405 249.363 289.873C249.634 290.341 250.011 290.738 250.464 291.032C251.325 291.53 252.026 291.131 252.028 290.142C252 289.602 251.844 289.077 251.574 288.609C251.304 288.141 250.927 287.743 250.474 287.449Z" fill="#362E94"/>
<path d="M252.531 295.536V294.063L248.406 291.681V293.153L249.288 293.663V299.289L248.406 298.779V300.251L252.531 302.633V301.161L251.65 300.651V295.026L252.531 295.536Z" fill="#362E94"/>
<path style="mix-blend-mode:multiply" d="M246.862 342.219L249.119 342.22L331.989 294.375H329.732L246.862 342.219ZM318.481 286.574H316.224L329.732 294.375H331.99L318.481 286.574Z" fill="url(#paint25_linear_265_761)"/>
<path d="M233.348 333.114L246.862 340.916L329.733 293.069L316.22 285.267L233.348 333.114Z" fill="#6D25DC"/>
<path d="M316.829 287.688L314.429 286.303L315.201 285.855L317.602 287.242L316.829 287.688ZM309.605 291.857L307.207 290.472L307.978 290.026L310.377 291.413L309.605 291.857ZM302.381 296.03L299.982 294.642L300.753 294.196L303.154 295.583L302.381 296.03ZM295.159 300.199L292.759 298.813L293.53 298.367L295.93 299.754L295.159 300.199ZM287.935 304.371L285.533 302.983L286.306 302.538L288.708 303.924L287.935 304.371ZM280.711 308.54L278.311 307.154L279.082 306.707L281.483 308.095L280.711 308.54ZM273.488 312.71L271.087 311.325L271.858 310.88L274.261 312.266L273.488 312.71ZM266.265 316.882L263.864 315.495L264.634 315.049L267.037 316.435L266.265 316.882ZM259.042 321.052L256.639 319.666L257.413 319.22L259.812 320.606L259.042 321.052ZM251.816 325.222L249.416 323.836L250.188 323.391L252.587 324.776L251.816 325.222ZM244.594 329.393L242.192 328.007L242.964 327.561L245.366 328.947L244.594 329.393ZM238.141 333.118L235.741 331.73L234.97 332.177L237.369 333.564L238.141 333.118Z" fill="#423EAF"/>
<path d="M292.565 307.958L290.431 306.726L270.515 318.225L272.65 319.457L292.565 307.958Z" fill="#6D25DC"/>
<path d="M246.862 342.219L233.348 334.417V333.114L246.862 340.916V342.219Z" fill="#FBBA05"/>
<path d="M329.732 294.375L246.862 342.219V340.916L329.732 293.069V294.375Z" fill="#6D25DC"/>
<path d="M321.038 82.6707L317.215 84.8778C314.982 86.168 311.907 79.1281 309.408 80.5708L302.707 84.4401C297.709 87.3236 299.514 78.9243 292.04 83.2392C283.257 88.3104 283.977 98.4892 278.98 101.374L272.278 105.243C269.781 106.686 269.098 112.659 266.864 113.948L263.041 116.155C262.209 116.635 260.618 117.964 260.618 119.704C261.754 119.048 292.04 101.563 292.04 101.563C292.04 101.563 322.324 84.0764 323.462 83.4212C323.462 81.6813 321.872 82.189 321.038 82.6707Z" fill="#EAEEF9"/>
<path style="mix-blend-mode:multiply" d="M86.7051 270.798H64.2637L71.906 275.209L64.2637 279.622H86.7051L94.3487 275.209L86.7051 270.798Z" fill="url(#paint26_linear_265_761)"/>
<path style="mix-blend-mode:multiply" d="M72.7873 279.621H51.6343L59.2764 284.035L51.6343 288.446H72.7873L80.4297 284.035L72.7873 279.621Z" fill="url(#paint27_linear_265_761)"/>
<path style="mix-blend-mode:multiply" d="M57.8664 288.446H39.0054L46.6475 292.859L39.0054 297.271H57.8664L65.5084 292.859L57.8664 288.446Z" fill="url(#paint28_linear_265_761)"/>
<path d="M56.6196 259.14L64.2625 263.553V279.621L56.6196 275.208V259.14Z" fill="#362E94"/>
<path d="M71.905 259.14L64.2627 263.553V279.621L71.905 275.208V259.14Z" fill="#20196F"/>
<path d="M64.2625 254.728L56.6196 259.14L64.2625 263.553L71.9049 259.14L64.2625 254.728Z" fill="#423EAF"/>
<path d="M43.9912 272.313L51.6338 276.726V288.446L43.9912 284.034V272.313Z" fill="#5652CC"/>
<path d="M59.2764 272.313L51.6338 276.726V288.446L59.2764 284.034V272.313Z" fill="#423EAF"/>
<path d="M51.6338 267.9L43.9912 272.313L51.6338 276.726L59.2764 272.313L51.6338 267.9Z" fill="#6B67E9"/>
<path d="M31.3623 283.666L39.0054 288.078V297.271L31.3623 292.859V283.666Z" fill="#6D25DC"/>
<path d="M46.6475 283.666L39.0054 288.078V297.271L46.6475 292.859V283.666Z" fill="#6D25DC"/>
<path d="M39.0054 279.253L31.3623 283.666L39.0054 288.078L46.6475 283.666L39.0054 279.253Z" fill="#6D25DC"/>
<path d="M344.161 126.751C350.494 130.407 355.132 137.41 355.133 143.589L355.132 143.847C355.132 149.768 351.832 150.438 348.532 150.181L347.551 150.077C346.436 150 346.079 150.515 346.079 152.06L346.079 153.914L340.951 150.953V148.738C340.951 145.391 341.843 143.795 344.652 144.027L345.589 144.104C348.444 144.31 349.959 143.898 349.959 140.912C349.959 137.667 347.552 134.269 344.162 132.312C340.64 130.279 337.919 130.716 337.919 134.681L337.919 136.123L332.79 133.162L332.79 131.462C332.79 124.408 337.74 123.043 344.161 126.751ZM343.492 154.944C345.722 156.231 347.373 159.038 347.373 161.612C347.373 164.238 345.723 165.139 343.493 163.852C341.308 162.591 339.658 159.784 339.658 157.158C339.658 154.583 341.307 153.683 343.492 154.944Z" fill="#807DFB"/>
<path style="mix-blend-mode:multiply" d="M236.672 214.115H223.227L222.189 218.116H236.672V214.115Z" fill="url(#paint29_linear_265_761)"/>
<path d="M223.806 213.827C224.611 214.631 224.632 216.818 224.102 217.312C223.571 217.806 222.446 218.541 221.171 217.805C219.895 217.068 216.404 215.132 216.181 214.558C215.658 213.212 216.812 212.111 218.394 212.58C220.216 213.121 220.593 213.276 221.448 213.244C222.303 213.213 223.217 213.239 223.806 213.827Z" fill="url(#paint30_linear_265_761)"/>
<path style="mix-blend-mode:multiply" d="M224.449 216.249C224.413 216.728 224.294 217.133 224.101 217.312C223.571 217.806 222.446 218.541 221.171 217.805C219.895 217.068 216.404 215.131 216.181 214.558C216.14 214.45 216.109 214.338 216.088 214.224C218.888 215.985 220.079 215.28 220.951 215.534C221.822 215.787 221.648 216.97 222.583 217.302C223.516 217.635 224.245 216.693 224.449 216.249Z" fill="url(#paint31_linear_265_761)"/>
<path d="M222.243 215.258C222.712 215.258 223.162 215.072 223.495 214.741C223.827 214.41 224.015 213.961 224.018 213.492C224.019 212.948 222.503 200.127 222.44 197.346C222.374 194.427 222.166 187.8 222.429 184.658C222.555 183.153 222.159 181.962 220.625 181.967C219.645 181.972 219.078 183.047 219.026 184.026C218.887 186.668 218.829 194.693 218.892 197.426C218.953 200.158 220.468 213.342 220.468 213.476C220.466 213.946 220.651 214.398 220.982 214.733C221.313 215.067 221.764 215.256 222.234 215.258H222.243Z" fill="url(#paint32_linear_265_761)"/>
<path d="M209.773 184.391C209.734 187.083 210.103 188.662 213.459 189.848C215.965 190.733 220.539 188.101 221.733 185.71C222.193 184.711 222.426 183.622 222.415 182.522C221.626 174.795 209.842 179.591 209.773 184.391Z" fill="#F6F6FB"/>
<path d="M214.662 179.154V183.465H222.363C222.401 183.152 222.419 182.837 222.416 182.522C221.971 178.164 218.028 177.79 214.662 179.154Z" fill="url(#paint33_linear_265_761)"/>
<path style="mix-blend-mode:multiply" d="M218.933 183.957C217.597 184.839 215.97 185.011 215.018 185.154C213.382 185.4 212.833 188.872 215.291 189.964C217.763 189.615 220.793 187.592 221.733 185.71C222.193 184.711 222.427 183.622 222.415 182.522C222.338 181.765 221.465 180.149 221.199 179.621C221.554 180.786 221.217 182.45 218.933 183.957Z" fill="url(#paint34_linear_265_761)"/>
<path d="M212.493 178.066C212.496 178.257 212.552 178.443 212.655 178.604C212.758 178.765 212.904 178.895 213.076 178.978C214.186 179.619 216.495 179.323 218.235 178.319C219.309 177.699 219.913 176.953 219.958 176.323V180.331H219.956C220 180.989 219.391 181.802 218.235 182.469C216.495 183.473 214.186 183.768 213.076 183.127C212.911 183.048 212.771 182.926 212.669 182.774C212.567 182.622 212.507 182.446 212.495 182.263C212.492 182.202 212.493 178.066 212.493 178.066Z" fill="#423EAF"/>
<path d="M212.495 181.434V181.447C212.507 181.629 212.567 181.805 212.669 181.957C212.771 182.109 212.912 182.231 213.076 182.311C214.186 182.951 216.495 182.656 218.235 181.652C219.391 180.985 220 180.173 219.956 179.514H219.958V179.901H219.956C220 180.559 219.391 181.371 218.235 182.039C216.495 183.043 214.186 183.337 213.076 182.697C212.912 182.617 212.771 182.495 212.669 182.343C212.567 182.192 212.507 182.016 212.495 181.833C212.495 181.822 212.494 181.67 212.494 181.434H212.495Z" fill="#362E94"/>
<path d="M212.495 180.606V180.618C212.507 180.801 212.567 180.977 212.669 181.128C212.771 181.28 212.912 181.402 213.076 181.482C214.186 182.122 216.495 181.828 218.235 180.824C219.391 180.156 220 179.344 219.956 178.686H219.958V179.071L219.956 179.072C220 179.731 219.391 180.543 218.235 181.21C216.495 182.214 214.186 182.509 213.076 181.868C212.912 181.788 212.771 181.666 212.669 181.515C212.567 181.363 212.507 181.187 212.495 181.005C212.495 180.993 212.494 180.842 212.494 180.606H212.495Z" fill="#362E94"/>
<path d="M212.495 179.777V179.79C212.507 179.972 212.567 180.148 212.669 180.3C212.771 180.452 212.912 180.574 213.076 180.654C214.186 181.294 216.495 180.999 218.235 179.995C219.391 179.327 220 178.516 219.956 177.857L219.958 177.857V178.243H219.956C220 178.902 219.391 179.713 218.235 180.381C216.495 181.385 214.186 181.68 213.076 181.039C212.912 180.96 212.771 180.838 212.669 180.686C212.567 180.534 212.507 180.358 212.495 180.176C212.495 180.164 212.494 180.013 212.494 179.777H212.495Z" fill="#362E94"/>
<path d="M212.495 178.949V178.961C212.507 179.144 212.567 179.32 212.669 179.471C212.771 179.623 212.912 179.745 213.076 179.825C214.186 180.465 216.495 180.171 218.235 179.166C219.391 178.498 220 177.687 219.956 177.029H219.958V177.414L219.956 177.415C220 178.074 219.391 178.885 218.235 179.553C216.495 180.557 214.186 180.851 213.076 180.212C212.912 180.131 212.771 180.009 212.669 179.857C212.567 179.706 212.507 179.529 212.495 179.347C212.495 179.336 212.494 179.185 212.494 178.949H212.495Z" fill="#362E94"/>
<path d="M212.495 178.12V178.132C212.507 178.315 212.567 178.491 212.669 178.643C212.771 178.794 212.911 178.916 213.076 178.996C214.185 179.636 216.495 179.342 218.234 178.338C219.391 177.67 220 176.859 219.955 176.2L219.958 176.199V176.586L219.955 176.587C220 177.244 219.391 178.056 218.234 178.723C216.495 179.728 214.186 180.023 213.076 179.382C212.911 179.302 212.771 179.18 212.669 179.029C212.567 178.877 212.507 178.701 212.495 178.519C212.494 178.386 212.493 178.253 212.494 178.12H212.495Z" fill="#362E94"/>
<path style="mix-blend-mode:multiply" d="M227.726 218.947H213.605L213.242 223.003H227.726V218.947Z" fill="url(#paint35_linear_265_761)"/>
<path d="M214.859 218.714C215.664 219.518 215.686 221.703 215.155 222.198C214.625 222.694 213.5 223.427 212.224 222.691C210.949 221.955 207.457 220.018 207.234 219.445C206.712 218.098 207.866 216.998 209.448 217.467C211.27 218.008 211.646 218.163 212.501 218.131C213.356 218.099 214.271 218.126 214.859 218.714Z" fill="url(#paint36_linear_265_761)"/>
<path style="mix-blend-mode:multiply" d="M215.502 221.137C215.466 221.615 215.348 222.019 215.155 222.198C214.625 222.693 213.5 223.427 212.224 222.691C210.949 221.955 207.457 220.018 207.234 219.445C207.194 219.337 207.163 219.225 207.142 219.112C209.941 220.871 211.133 220.167 212.004 220.42C212.876 220.674 212.702 221.856 213.636 222.189C214.57 222.521 215.298 221.58 215.502 221.137Z" fill="url(#paint37_linear_265_761)"/>
<path d="M213.296 220.146C213.765 220.145 214.215 219.959 214.548 219.628C214.88 219.297 215.068 218.848 215.07 218.379C215.072 217.835 213.555 205.014 213.493 202.232C213.427 199.315 213.219 192.686 213.482 189.545C213.609 188.039 213.211 186.849 211.678 186.855C210.698 186.858 210.131 187.934 210.08 188.912C209.94 191.555 209.883 199.58 209.945 202.312C210.006 205.045 211.522 218.229 211.521 218.361C211.519 218.832 211.704 219.284 212.035 219.619C212.366 219.953 212.817 220.143 213.288 220.146H213.296Z" fill="url(#paint38_linear_265_761)"/>
<path d="M222.757 179.525C222.609 179.552 222.472 179.623 222.364 179.729C222.257 179.835 222.184 179.971 222.156 180.119C222.004 180.667 221.762 181.185 221.44 181.653C221.185 182.04 221.229 182.419 221.574 182.632C221.919 182.846 222.227 182.912 222.58 182.447C223.049 181.811 223.379 181.083 223.548 180.31C223.574 180.131 223.528 179.948 223.421 179.801C223.314 179.654 223.154 179.555 222.975 179.525C222.903 179.511 222.829 179.511 222.757 179.525Z" fill="#131147"/>
<path d="M222.817 180.549C221.927 180.214 221.841 179.761 222.037 178.277C222.052 178.158 222.809 172.369 222.566 170.312C222.317 168.192 221.43 164.291 220.424 162.333C220.186 161.802 219.974 161.26 219.791 160.709C219.713 160.529 219.673 160.336 219.673 160.14C219.673 159.944 219.713 159.751 219.79 159.571C219.868 159.391 219.982 159.229 220.124 159.095C220.267 158.961 220.435 158.858 220.619 158.792C221.439 158.481 222.195 158.869 222.585 159.629C222.82 160.087 223.056 160.579 223.282 161.059C224.423 163.471 225.278 168.06 225.612 170.252C225.995 172.772 225.203 178.395 224.936 179.134C224.456 180.46 223.958 180.981 222.817 180.549Z" fill="url(#paint39_linear_265_761)"/>
<path d="M224.857 181.842C224.854 182.058 224.825 182.273 224.771 182.483C224.728 182.665 224.615 182.822 224.457 182.922C224.299 183.021 224.108 183.054 223.926 183.014C223.834 182.998 223.746 182.963 223.669 182.912C223.591 182.86 223.525 182.792 223.475 182.713C223.425 182.635 223.393 182.546 223.379 182.454C223.366 182.361 223.373 182.267 223.398 182.177C223.461 181.623 223.437 181.062 223.325 180.515C223.297 180.425 223.287 180.33 223.298 180.236C223.308 180.142 223.338 180.051 223.385 179.969C223.433 179.887 223.497 179.816 223.573 179.761C223.65 179.705 223.737 179.667 223.83 179.647C223.919 179.615 224.013 179.602 224.107 179.61C224.201 179.618 224.292 179.647 224.374 179.694C224.456 179.741 224.527 179.805 224.581 179.882C224.636 179.959 224.673 180.047 224.69 180.14C224.826 180.696 224.882 181.269 224.857 181.842ZM222.852 179.534C222.84 179.684 222.783 179.827 222.688 179.944C222.593 180.062 222.465 180.147 222.32 180.19C221.788 180.399 221.293 180.694 220.855 181.063C220.493 181.355 220.102 181.356 219.849 181.04C219.596 180.725 219.493 180.434 219.918 180.032C220.503 179.495 221.197 179.089 221.953 178.844C222.132 178.796 222.322 178.818 222.485 178.907C222.648 178.996 222.77 179.144 222.827 179.32C222.85 179.389 222.859 179.461 222.852 179.534Z" fill="#20196F"/>
<path d="M206.936 164.662C206.886 168.077 206.692 178.907 210.948 180.411C214.129 181.535 220.305 177.877 221.446 175.162C222.961 171.554 223.431 165.885 223.416 162.286C222.416 152.483 207.023 158.573 206.935 164.662L206.936 164.662Z" fill="#F6F6FB"/>
<path d="M207.333 155.974C207.38 155.762 207.445 155.555 207.529 155.355C207.564 155.267 207.617 155.187 207.683 155.12C207.75 155.053 207.829 154.999 207.916 154.963C208.003 154.927 208.097 154.909 208.191 154.91C208.286 154.911 208.379 154.93 208.466 154.968C208.553 155.005 208.631 155.06 208.696 155.128C208.762 155.196 208.813 155.277 208.846 155.365C208.88 155.453 208.895 155.547 208.892 155.642C208.889 155.736 208.866 155.829 208.827 155.915C208.643 156.459 208.564 157.034 208.595 157.608C208.605 157.702 208.595 157.796 208.568 157.887C208.54 157.977 208.494 158.061 208.434 158.133C208.373 158.206 208.298 158.265 208.214 158.308C208.13 158.352 208.038 158.377 207.944 158.384C207.85 158.391 207.755 158.379 207.666 158.349C207.576 158.319 207.494 158.271 207.423 158.208C207.352 158.145 207.295 158.069 207.254 157.984C207.213 157.899 207.19 157.806 207.186 157.712C207.157 157.128 207.206 156.544 207.333 155.974ZM208.871 158.653C208.905 158.506 208.985 158.374 209.099 158.276C209.213 158.178 209.355 158.119 209.505 158.107C210.072 158.016 210.617 157.818 211.111 157.523C211.27 157.427 211.46 157.397 211.641 157.44C211.822 157.483 211.978 157.595 212.077 157.753C212.175 157.91 212.208 158.1 212.167 158.282C212.126 158.463 212.016 158.621 211.86 158.722C211.173 159.137 210.409 159.408 209.613 159.516C209.427 159.531 209.242 159.471 209.099 159.349C208.957 159.227 208.869 159.053 208.854 158.867C208.849 158.795 208.855 158.723 208.871 158.653Z" fill="#131147"/>
<path d="M201.355 169.799C202.525 169.799 204.915 169.451 209.953 165.211C210.316 164.881 210.542 164.427 210.586 163.939C210.63 163.451 210.49 162.964 210.192 162.575C209.928 162.248 209.545 162.039 209.127 161.994C208.709 161.95 208.291 162.072 207.964 162.336C206.482 163.556 204.922 164.68 203.295 165.7C204.274 164.187 206.125 162.515 209.12 159.872C209.276 159.734 209.403 159.567 209.494 159.38C209.586 159.193 209.639 158.99 209.652 158.782C209.665 158.575 209.637 158.367 209.569 158.17C209.502 157.973 209.396 157.791 209.259 157.636C209.121 157.48 208.954 157.352 208.767 157.261C208.58 157.169 208.377 157.116 208.169 157.103C207.961 157.09 207.753 157.118 207.557 157.186C207.36 157.253 207.178 157.359 207.022 157.497C202.583 161.416 199.902 163.782 199.349 167.224C199.116 168.681 200.026 169.333 200.31 169.498C200.622 169.699 200.985 169.803 201.355 169.799Z" fill="url(#paint40_linear_265_761)"/>
<path d="M209.169 158.76C209.319 158.767 209.468 158.725 209.593 158.641C209.717 158.558 209.812 158.436 209.864 158.295C210.103 157.772 210.439 157.3 210.855 156.903C210.926 156.841 210.984 156.766 211.026 156.681C211.067 156.596 211.091 156.504 211.096 156.41C211.102 156.316 211.088 156.221 211.056 156.133C211.024 156.044 210.975 155.962 210.911 155.893C210.848 155.823 210.771 155.767 210.685 155.728C210.599 155.689 210.506 155.667 210.412 155.664C210.318 155.661 210.224 155.677 210.136 155.711C210.048 155.745 209.968 155.796 209.9 155.862C209.317 156.413 208.852 157.077 208.535 157.814C208.503 157.901 208.489 157.993 208.493 158.086C208.498 158.179 208.52 158.27 208.559 158.354C208.599 158.438 208.654 158.513 208.723 158.576C208.791 158.639 208.871 158.687 208.959 158.719C209.026 158.743 209.097 158.758 209.169 158.76Z" fill="#20196F"/>
<path style="mix-blend-mode:multiply" d="M219.02 157.245L214.629 160.56C216.723 160.56 221.204 162.295 223.148 160.931C222.509 158.717 220.945 157.587 219.02 157.245Z" fill="url(#paint41_linear_265_761)"/>
<path d="M213.97 154.724C213.969 155.057 215.82 154.813 217.435 153.912C217.811 153.702 218.105 153.641 218.425 153.34L219.628 157.675L219.627 157.676C219.667 158.282 219.106 159.03 218.041 159.644C216.44 160.569 214.313 160.841 213.291 160.251C213.14 160.178 213.01 160.065 212.916 159.925C212.822 159.785 212.766 159.623 212.755 159.455C212.753 159.4 213.97 154.724 213.97 154.724Z" fill="url(#paint42_linear_265_761)"/>
<path d="M219.647 151.44C219.647 148.99 217.858 145.957 215.209 145.957C212.758 145.957 210.771 148.99 210.771 151.44C210.771 153.891 210.777 157.574 212.039 157.438C212.816 157.356 216.065 154.63 217.681 154.091C219.16 153.598 219.647 153.11 219.647 151.44Z" fill="url(#paint43_linear_265_761)"/>
<path style="mix-blend-mode:multiply" d="M217.681 154.091C216.065 154.63 212.816 157.356 212.04 157.438C211.044 157.545 210.831 155.281 210.785 153.117C211.096 151.756 211.455 149.86 213.454 149.854C215.449 149.846 215.484 154.07 218.143 153.34C219.595 152.942 219.575 152.14 219.629 151.788L219.632 151.794C219.56 153.174 219.046 153.636 217.681 154.091H217.681Z" fill="url(#paint44_linear_265_761)"/>
<path style="mix-blend-mode:multiply" d="M219.624 162.443C217.424 163.479 212.918 165.97 213.225 169.396C213.533 172.822 214.639 180.6 211.276 180.507C214.535 181.292 220.342 177.786 221.445 175.162C222.961 171.554 223.431 165.885 223.415 162.286C223.408 162.219 223.394 162.16 223.386 162.095C223.169 161.373 221.658 161.486 219.624 162.443Z" fill="url(#paint45_linear_265_761)"/>
<path style="mix-blend-mode:multiply" d="M165.511 276.87L157.229 272.089L163.614 268.402C163.653 268.381 163.689 268.36 163.724 268.338L163.757 268.319L163.756 268.319C164.86 267.606 164 266.189 161.17 264.555C157.101 262.206 150.503 260.301 146.434 260.301C145.019 260.301 144.097 260.532 143.666 260.931L143.658 260.928L137.069 264.731C136.06 265.21 136.187 266.11 137.442 267.219L129.191 271.984C128.107 271.793 127.009 271.69 125.908 271.675C124.491 271.675 123.57 271.905 123.139 272.305L123.131 272.3L116.543 276.104C115.135 276.77 115.924 278.257 118.916 279.984C122.986 282.334 129.583 284.238 133.653 284.238C135.012 284.238 135.914 284.025 136.365 283.655L136.367 283.655L142.285 280.238L150.982 285.26L165.511 276.87Z" fill="url(#paint46_linear_265_761)"/>
<path d="M131.748 255.747C131.748 260.001 134.734 265.171 138.417 267.298C142.1 269.425 145.086 267.701 145.086 263.448C145.086 259.194 142.102 254.023 138.417 251.896C134.734 249.769 131.748 251.493 131.748 255.747ZM132.751 256.326C132.751 252.712 135.288 251.247 138.417 253.053C141.548 254.861 144.084 259.255 144.084 262.869C144.084 266.483 141.548 267.946 138.417 266.14C135.288 264.333 132.751 259.94 132.751 256.326Z" fill="#CED3F8"/>
<path d="M138.417 266.14C135.288 264.333 132.75 259.94 132.75 256.326C132.75 252.712 135.287 251.247 138.417 253.053C138.542 253.127 138.665 253.21 138.789 253.29C138.981 256.663 141.238 260.564 144.065 262.408C144.073 262.563 144.084 262.717 144.084 262.869C144.084 266.483 141.548 267.946 138.417 266.14Z" fill="url(#paint47_linear_265_761)"/>
<path d="M131.049 255.344C131.049 260.041 134.348 265.756 138.417 268.104C142.487 270.454 145.786 268.55 145.786 263.851C145.786 259.152 142.487 253.438 138.417 251.089C134.348 248.74 131.049 250.644 131.049 255.344ZM131.748 255.747C131.748 251.493 134.734 249.769 138.417 251.896C142.1 254.022 145.086 259.195 145.086 263.448C145.086 267.7 142.1 269.425 138.417 267.298C134.734 265.171 131.748 260.001 131.748 255.747Z" fill="#362E93"/>
<path d="M143.565 268.655H143.564C143.568 268.652 143.572 268.65 143.577 268.648L143.565 268.655Z" fill="#362B6E"/>
<path d="M139.056 247.206C140.402 246.312 142.321 246.372 144.454 247.603C148.525 249.953 151.822 255.667 151.822 260.366C151.822 262.752 150.972 264.415 149.601 265.169V265.17L143.677 268.59C144.981 267.807 145.786 266.17 145.786 263.852C145.786 259.152 142.487 253.439 138.417 251.089C136.285 249.858 134.364 249.797 133.019 250.692L139.056 247.206Z" fill="url(#paint48_linear_265_761)"/>
<path d="M145.426 232.534C147.434 233.01 149.241 234.704 150.516 237.306C151.944 240.218 152.752 244.548 151.339 247.658L148.012 246.146C148.771 244.475 148.437 241.367 147.235 238.914C146.471 237.359 145.481 236.303 144.584 236.092L145.426 232.534Z" fill="url(#paint49_linear_265_761)"/>
<path d="M119.22 252.569C118.065 251.901 118.065 250.809 119.22 250.142L129.048 244.468C130.205 243.8 132.096 243.8 133.251 244.468L142.841 250.004C143.996 250.672 143.996 251.764 142.841 252.431L133.013 258.105C131.857 258.773 129.965 258.773 128.81 258.105L119.22 252.569Z" fill="#C2C7E3"/>
<path d="M119.22 252.569C118.065 251.901 118.065 250.809 119.22 250.142L129.048 244.468C130.205 243.8 132.096 243.8 133.251 244.468L142.841 250.004C143.996 250.672 143.996 251.764 142.841 252.431L133.013 258.105C131.857 258.773 129.965 258.773 128.81 258.105L119.22 252.569Z" fill="#F6F6FB"/>
<path d="M118.359 251.429C118.39 251.845 118.675 252.254 119.22 252.569L128.81 258.105L128.813 258.107C129.97 258.773 131.859 258.772 133.013 258.105L142.841 252.431C143.416 252.099 143.705 251.662 143.707 251.224L143.707 251.225L143.708 261.082C143.707 262.459 142.551 265.488 140.58 266.527L129.712 272.801C129.69 272.813 129.668 272.826 129.647 272.838L129.61 272.86L129.61 272.856C128.855 273.252 127.835 273.177 126.708 272.528L121.322 269.418C118.249 267.643 118.359 264.33 118.359 262.854V251.429Z" fill="url(#paint50_linear_265_761)"/>
<path style="mix-blend-mode:multiply" d="M118.359 251.429C118.39 251.845 118.675 252.254 119.22 252.569L128.81 258.105L128.813 258.107C129.97 258.773 131.859 258.772 133.013 258.105L142.841 252.431C143.416 252.099 143.705 251.662 143.707 251.224L143.707 251.225L143.708 261.082C143.707 262.459 142.551 265.488 140.58 266.527L129.712 272.801C129.69 272.813 129.668 272.826 129.647 272.838L129.61 272.86L129.61 272.856C128.855 273.252 127.835 273.177 126.708 272.528L121.322 269.418C118.249 267.643 118.359 264.33 118.359 262.854V251.429Z" fill="url(#paint51_linear_265_761)"/>
<path d="M111.699 267.339C111.699 271.593 114.685 276.763 118.368 278.891C122.052 281.017 125.038 279.294 125.038 275.04C125.038 270.787 122.052 265.616 118.368 263.49C114.685 261.362 111.699 263.086 111.699 267.339ZM112.702 267.917C112.702 264.303 115.238 262.84 118.368 264.647C121.498 266.454 124.035 270.847 124.035 274.461C124.035 278.076 121.498 279.54 118.368 277.733C115.238 275.926 112.702 271.531 112.702 267.917Z" fill="#CED3F8"/>
<path d="M118.368 277.733C115.238 275.926 112.702 271.531 112.702 267.917C112.702 264.303 115.238 262.84 118.368 264.647C118.493 264.719 118.616 264.802 118.74 264.883C118.931 268.255 121.188 272.157 124.015 274C124.024 274.155 124.034 274.309 124.034 274.461C124.034 278.076 121.498 279.54 118.368 277.733Z" fill="url(#paint52_linear_265_761)"/>
<path d="M111 266.936C110.999 271.634 114.299 277.348 118.368 279.697C122.438 282.047 125.737 280.143 125.737 275.443C125.737 270.745 122.438 265.032 118.368 262.682C114.299 260.332 110.999 262.237 111 266.936ZM111.699 267.339C111.699 263.086 114.685 261.363 118.368 263.489C122.052 265.616 125.038 270.787 125.038 275.04C125.038 279.294 122.052 281.017 118.368 278.891C114.685 276.764 111.699 271.592 111.699 267.339Z" fill="#362E93"/>
<path d="M123.516 280.247L123.515 280.247C123.519 280.245 123.523 280.243 123.527 280.242L123.516 280.247Z" fill="#362B6E"/>
<path d="M119.006 258.8C120.353 257.904 122.272 257.965 124.406 259.196C128.475 261.546 131.774 267.259 131.774 271.959C131.774 274.344 130.922 276.008 129.552 276.761L129.553 276.762L123.628 280.182C124.931 279.4 125.737 277.763 125.737 275.443C125.737 270.745 122.438 265.032 118.368 262.682C116.236 261.45 114.316 261.389 112.97 262.286L119.006 258.8Z" fill="url(#paint53_linear_265_761)"/>
<path d="M115.737 234.146L115.74 234.145C115.74 234.157 115.738 234.168 115.737 234.179V234.146Z" fill="black"/>
<path d="M115.737 234.241C115.751 234.67 116.038 235.098 116.602 235.423L126.192 240.96C127.349 241.627 129.24 241.627 130.395 240.96L145.458 232.263C146.036 231.93 146.325 231.49 146.326 231.05V248.643C146.326 249.085 146.037 249.523 145.458 249.858L130.395 258.554C129.24 259.222 127.348 259.222 126.192 258.554L116.602 253.018C115.996 252.669 115.712 252.202 115.74 251.741L115.737 251.742V234.241Z" fill="url(#paint54_linear_265_761)"/>
<path d="M116.602 235.423C115.446 234.756 115.446 233.664 116.602 232.997L131.665 224.3C132.821 223.632 134.713 223.632 135.869 224.3L145.458 229.836C146.614 230.504 146.614 231.595 145.458 232.263L130.395 240.96C129.239 241.627 127.348 241.627 126.192 240.96L116.602 235.423Z" fill="white"/>
<path style="mix-blend-mode:multiply" d="M145.458 229.836L140.495 226.97C140.389 226.968 140.284 226.964 140.175 226.964H136.579C134.876 226.964 132.806 227.362 131.956 227.853L122.687 233.204C121.836 233.696 122.525 234.094 124.228 234.094L130.76 237.788C129.91 238.279 130.599 238.678 132.301 238.678H134.348L145.458 232.263C146.614 231.595 146.614 230.504 145.458 229.836Z" fill="url(#paint55_linear_265_761)"/>
<path d="M136.117 224.615C139.527 222.646 142.292 224.242 142.291 228.18V230.256C142.262 230.79 142.108 231.311 141.84 231.775C141.572 232.238 141.199 232.633 140.751 232.925L131.483 238.276C130.631 238.768 129.94 238.37 129.94 237.386V235.31C129.94 231.372 132.705 226.584 136.117 224.615Z" fill="#BBC0E6"/>
<path d="M140.74 230.249V228.174C140.74 226.683 140.283 225.575 139.524 224.938C140.741 225.382 141.521 226.675 141.521 228.625V230.7C141.506 230.968 141.429 231.228 141.295 231.46C141.161 231.692 140.974 231.889 140.75 232.035L131.482 237.387C131.057 237.631 130.712 237.432 130.712 236.941V236.929L139.969 231.584C140.193 231.437 140.38 231.24 140.514 231.009C140.648 230.777 140.725 230.517 140.74 230.249Z" fill="url(#paint56_linear_265_761)"/>
<path d="M136.117 225.505C137.408 224.759 138.595 224.6 139.524 224.938C140.283 225.575 140.74 226.683 140.74 228.174V230.249C140.725 230.517 140.648 230.777 140.514 231.009C140.38 231.24 140.193 231.437 139.969 231.584L130.712 236.929V234.866C130.712 231.424 133.136 227.224 136.117 225.505Z" fill="url(#paint57_linear_265_761)"/>
<path style="mix-blend-mode:multiply" d="M131.758 234.79C131.758 231.349 134.182 227.15 137.163 225.43C137.671 225.128 138.224 224.909 138.802 224.783C138.01 224.713 137.094 224.94 136.117 225.505C133.136 227.224 130.712 231.424 130.712 234.866V236.929L131.758 236.325V234.79Z" fill="url(#paint58_linear_265_761)"/>
<path d="M128.116 219.996C129.825 219.01 131.372 218.919 132.49 219.569L140.478 224.18C139.361 223.537 137.818 223.632 136.117 224.615C132.705 226.584 129.94 231.372 129.94 235.31V237.387C129.921 237.576 129.951 237.766 130.029 237.94C130.106 238.114 130.227 238.264 130.381 238.376L122.424 233.781C122.127 233.628 121.941 233.277 121.941 232.768V230.692C121.941 226.754 124.706 221.965 128.116 219.996Z" fill="url(#paint59_linear_265_761)"/>
<g style="mix-blend-mode:screen">
<path d="M132.489 232.253C132.5 232.046 132.56 231.843 132.664 231.663C132.768 231.483 132.913 231.329 133.088 231.216C133.419 231.025 133.687 231.18 133.687 231.562C133.675 231.77 133.615 231.972 133.511 232.152C133.407 232.332 133.262 232.485 133.088 232.599C132.757 232.79 132.489 232.635 132.489 232.253V232.253ZM136.938 229.685C136.95 229.477 137.01 229.275 137.114 229.095C137.218 228.915 137.363 228.761 137.537 228.648C137.868 228.457 138.136 228.611 138.136 228.993C138.125 229.201 138.065 229.403 137.961 229.583C137.857 229.764 137.712 229.917 137.537 230.03C137.207 230.222 136.938 230.066 136.938 229.685Z" fill="#FFC16B"/>
</g>
<path d="M154.657 244.459L197.843 269.392L168.966 286.064L125.78 261.13L154.657 244.459Z" fill="#6D25DC"/>
<path d="M196.079 269.618V265.875L169.638 281.142V284.884L196.079 269.618Z" fill="#CED3F8"/>
<path d="M154.657 239.939L197.843 264.873L168.965 281.545L125.78 256.611L154.657 239.939Z" fill="#6D25DC"/>
<path d="M168.965 281.545C168.966 281.544 197.842 264.873 197.842 264.873V265.649L169.638 281.933V285.676L197.842 269.392V270.168L168.965 286.84V281.545Z" fill="#6D25DC"/>
<path d="M170.078 248.843L182.421 255.969L153.545 272.641L141.201 265.515L170.078 248.843ZM125.78 256.611L168.965 281.545V286.84L125.78 261.907V256.611Z" fill="#6D25DC"/>
<path d="M134.588 261.697L138.398 263.897V269.192L134.588 266.992V261.697ZM160.157 276.459L156.347 274.259V279.555L160.157 281.755V276.459Z" fill="#F4B10B"/>
<path d="M163.843 257.769L166.961 259.569L159.78 263.715L156.662 261.915L163.843 257.769Z" fill="#F6F6FB"/>
<path d="M141.201 265.515L153.544 272.641V277.937L141.201 270.81V265.515Z" fill="#F4B10B"/>
<path d="M130.979 261.228C131.199 261.403 131.434 261.558 131.682 261.691C131.897 261.802 132.147 261.823 132.377 261.75C132.607 261.677 132.799 261.516 132.911 261.302C133.023 261.088 133.046 260.838 132.974 260.607C132.902 260.377 132.742 260.184 132.528 260.071C131.9 259.674 131.353 259.161 130.916 258.559C130.848 258.459 130.761 258.373 130.66 258.306C130.558 258.24 130.445 258.194 130.326 258.172C130.207 258.149 130.084 258.151 129.966 258.177C129.847 258.202 129.735 258.251 129.636 258.32C129.536 258.389 129.452 258.478 129.387 258.58C129.322 258.682 129.278 258.796 129.257 258.916C129.237 259.035 129.24 259.158 129.268 259.276C129.295 259.394 129.345 259.505 129.416 259.603C129.862 260.213 130.387 260.76 130.979 261.228Z" fill="#121047"/>
<path style="mix-blend-mode:multiply" d="M126.269 245.989L121.7 241.023L119.295 243.271L123.865 248.237L126.269 245.989Z" fill="url(#paint60_linear_265_761)"/>
<path d="M129.87 258.612C130.051 258.685 130.249 258.699 130.438 258.651C130.627 258.604 130.795 258.497 130.919 258.347C131.438 257.815 132.053 257.387 132.732 257.084C132.955 256.99 133.132 256.811 133.223 256.586C133.315 256.362 133.313 256.11 133.219 255.887C133.125 255.664 132.946 255.487 132.721 255.395C132.497 255.304 132.245 255.306 132.022 255.4C131.407 255.66 130.179 256.373 129.51 257.183C129.356 257.37 129.282 257.61 129.305 257.852C129.328 258.093 129.445 258.315 129.632 258.47C129.704 258.529 129.784 258.577 129.87 258.612Z" fill="#121047"/>
<path d="M122.639 243.419C122.604 242.763 122.414 242.124 122.085 241.554C121.756 240.985 121.298 240.5 120.747 240.141C119.701 239.537 118.854 240.027 118.854 241.234C118.889 241.891 119.079 242.53 119.408 243.099C119.737 243.669 120.196 244.152 120.747 244.511C121.792 245.115 122.639 244.626 122.639 243.419Z" fill="#1F196F"/>
<path d="M119.126 241.275C119.503 240.81 119.911 240.371 120.347 239.961C120.486 240.007 120.62 240.067 120.747 240.141C121.616 240.643 122.345 241.74 122.568 242.789C122.454 243.061 122.3 243.315 122.112 243.542C120.584 245.256 120.639 248.566 121.475 249.919C123.367 252.981 125.679 254.992 129.851 256.34C131.775 257.365 131.578 259.572 129.893 259.994C124.165 258.209 121.18 256.272 118.501 252.044C116.995 249.669 116.989 243.709 119.126 241.275V241.275Z" fill="url(#paint61_linear_265_761)"/>
<path style="mix-blend-mode:multiply" d="M222.616 310.598L214.531 305.929L220.765 302.331C220.803 302.311 220.838 302.29 220.872 302.269L220.904 302.25H220.902C221.98 301.553 221.14 300.171 218.379 298.576C214.407 296.283 207.967 294.424 203.994 294.424C202.614 294.424 201.714 294.649 201.293 295.039L201.286 295.034L194.854 298.748C193.867 299.214 193.992 300.095 195.217 301.177L187.164 305.827C186.105 305.641 185.033 305.54 183.958 305.525C182.576 305.525 181.677 305.751 181.256 306.141L181.248 306.136L174.817 309.85C173.442 310.5 174.213 311.95 177.134 313.636C181.106 315.93 187.546 317.789 191.518 317.789C192.845 317.789 193.725 317.58 194.166 317.219L194.168 317.22L199.944 313.885L208.433 318.786L222.616 310.598Z" fill="url(#paint62_linear_265_761)"/>
<path d="M189.712 289.999C189.712 294.15 192.626 299.198 196.221 301.274C199.818 303.35 202.732 301.668 202.732 297.515C202.732 293.363 199.818 288.315 196.221 286.24C192.626 284.163 189.711 285.847 189.712 289.999ZM190.69 290.563C190.69 287.036 193.167 285.606 196.221 287.37C199.277 289.134 201.753 293.423 201.753 296.95C201.753 300.478 199.277 301.907 196.221 300.143C193.167 298.381 190.69 294.092 190.69 290.563Z" fill="#CED3F8"/>
<path d="M196.221 300.143C193.167 298.381 190.69 294.092 190.69 290.564C190.69 287.036 193.167 285.606 196.221 287.37C196.344 287.441 196.464 287.522 196.585 287.601C196.772 290.893 198.974 294.7 201.734 296.502C201.743 296.652 201.753 296.803 201.753 296.95C201.753 300.478 199.277 301.907 196.221 300.143Z" fill="url(#paint63_linear_265_761)"/>
<path d="M189.03 289.604C189.029 294.191 192.25 299.768 196.221 302.061C200.195 304.354 203.414 302.495 203.414 297.909C203.414 293.322 200.195 287.745 196.221 285.452C192.25 283.159 189.029 285.017 189.029 289.605L189.03 289.604ZM189.712 289.999C189.712 285.847 192.628 284.164 196.221 286.24C199.818 288.316 202.732 293.364 202.732 297.515C202.732 301.667 199.818 303.35 196.221 301.274C192.627 299.198 189.711 294.15 189.712 289.999Z" fill="#362E93"/>
<path d="M201.246 302.599H201.246C201.249 302.596 201.254 302.593 201.258 302.591L201.246 302.599Z" fill="#362B6E"/>
<path d="M196.845 281.663C198.159 280.789 200.033 280.848 202.114 282.05C206.087 284.343 209.307 289.92 209.307 294.507C209.307 296.836 208.476 298.46 207.139 299.196L207.139 299.196L201.356 302.535C202.629 301.772 203.414 300.174 203.414 297.909C203.414 293.322 200.195 287.745 196.221 285.452C194.141 284.25 192.267 284.191 190.953 285.066L196.845 281.663Z" fill="url(#paint64_linear_265_761)"/>
<path d="M177.485 286.896C176.355 286.245 176.355 285.179 177.485 284.527L187.077 278.989C188.206 278.337 190.052 278.337 191.179 278.989L200.541 284.393C201.669 285.045 201.669 286.11 200.541 286.762L190.948 292.301C189.819 292.952 187.972 292.952 186.844 292.301L177.485 286.896Z" fill="#C2C7E3"/>
<path d="M177.485 286.896C176.355 286.245 176.355 285.179 177.485 284.527L187.077 278.989C188.206 278.337 190.052 278.337 191.179 278.989L200.541 284.393C201.669 285.045 201.669 286.11 200.541 286.762L190.948 292.301C189.819 292.952 187.972 292.952 186.844 292.301L177.485 286.896Z" fill="#F6F6FB"/>
<path d="M176.643 285.784C176.673 286.19 176.951 286.589 177.484 286.897L186.844 292.301L186.848 292.303C187.976 292.952 189.82 292.952 190.948 292.301L200.541 286.763C201.102 286.438 201.383 286.012 201.385 285.584H201.386L201.387 295.207C201.386 296.551 200.258 299.507 198.334 300.521L187.725 306.645L187.661 306.682L187.625 306.703V306.699C186.888 307.086 185.892 307.013 184.793 306.379L179.535 303.343C176.535 301.611 176.643 298.376 176.643 296.937V285.784Z" fill="url(#paint65_linear_265_761)"/>
<path style="mix-blend-mode:multiply" d="M176.643 285.784C176.673 286.19 176.951 286.589 177.484 286.897L186.844 292.301L186.848 292.303C187.976 292.952 189.82 292.952 190.948 292.301L200.541 286.763C201.102 286.438 201.383 286.012 201.385 285.584H201.386L201.387 295.207C201.386 296.551 200.258 299.507 198.334 300.521L187.725 306.645L187.661 306.682L187.625 306.703V306.699C186.888 307.086 185.892 307.013 184.793 306.379L179.535 303.343C176.535 301.611 176.643 298.376 176.643 296.937V285.784Z" fill="url(#paint66_linear_265_761)"/>
<path d="M170.143 301.314C170.143 305.466 173.056 310.514 176.652 312.59C180.248 314.666 183.162 312.983 183.162 308.832C183.162 304.679 180.248 299.632 176.652 297.556C173.056 295.48 170.143 297.163 170.143 301.314ZM171.121 301.878C171.121 298.351 173.597 296.922 176.652 298.685C179.707 300.451 182.184 304.738 182.184 308.266C182.184 311.794 179.707 313.223 176.652 311.46C173.597 309.696 171.121 305.407 171.121 301.878Z" fill="#CED3F8"/>
<path d="M176.652 311.46C173.597 309.696 171.121 305.407 171.121 301.879C171.121 298.351 173.597 296.922 176.652 298.685C176.775 298.756 176.894 298.838 177.015 298.916C177.202 302.208 179.405 306.016 182.164 307.816C182.172 307.966 182.184 308.118 182.184 308.266C182.184 311.794 179.707 313.223 176.652 311.46Z" fill="url(#paint67_linear_265_761)"/>
<path d="M169.459 300.92C169.459 305.507 172.68 311.084 176.652 313.377C180.624 315.67 183.844 313.811 183.844 309.225C183.844 304.638 180.623 299.061 176.652 296.768C172.68 294.474 169.459 296.334 169.459 300.92ZM170.142 301.314C170.142 297.163 173.057 295.481 176.652 297.556C180.248 299.631 183.162 304.679 183.162 308.832C183.162 312.983 180.248 314.664 176.652 312.59C173.057 310.514 170.142 305.465 170.142 301.314Z" fill="#362E93"/>
<path d="M181.676 313.914C181.68 313.911 181.684 313.909 181.688 313.908L181.676 313.914Z" fill="#362B6E"/>
<path d="M177.275 292.979C178.588 292.104 180.462 292.164 182.545 293.366C186.516 295.66 189.737 301.235 189.737 305.823C189.737 308.151 188.907 309.776 187.569 310.512H187.569L181.786 313.85C183.058 313.087 183.844 311.489 183.844 309.225C183.844 304.638 180.623 299.061 176.652 296.768C174.57 295.565 172.696 295.506 171.382 296.38L177.275 292.979Z" fill="url(#paint68_linear_265_761)"/>
<path d="M174.084 268.913L174.087 268.913C174.087 268.925 174.084 268.935 174.084 268.945V268.913Z" fill="black"/>
<path d="M174.085 269.006C174.097 269.425 174.377 269.842 174.928 270.16L184.289 275.564C185.417 276.217 187.264 276.217 188.392 275.564L203.095 267.076C203.659 266.75 203.941 266.32 203.941 265.891V283.065C203.941 283.495 203.66 283.924 203.095 284.25L188.392 292.739C187.264 293.391 185.417 293.391 184.289 292.739L174.928 287.335C174.337 286.994 174.058 286.538 174.087 286.088L174.084 286.088L174.085 269.006Z" fill="url(#paint69_linear_265_761)"/>
<path d="M174.928 270.16C173.801 269.509 173.801 268.443 174.928 267.792L189.632 259.302C190.76 258.651 192.606 258.651 193.734 259.302L203.095 264.707C204.224 265.359 204.224 266.424 203.095 267.076L188.392 275.564C187.264 276.216 185.418 276.216 184.289 275.564L174.928 270.16Z" fill="white"/>
<path style="mix-blend-mode:multiply" d="M203.095 264.707L196.552 260.93C196.513 260.93 196.474 260.928 196.435 260.928H192.94C191.284 260.928 189.272 261.314 188.445 261.792L179.433 266.995C178.607 267.474 179.277 267.86 180.931 267.86L187.278 271.577C186.452 272.055 187.122 272.442 188.777 272.442H192.273C192.79 272.442 193.317 272.432 193.849 272.414L203.095 267.076C204.224 266.424 204.224 265.359 203.095 264.707V264.707Z" fill="url(#paint70_linear_265_761)"/>
<path d="M192.568 258.806C195.884 256.892 198.573 258.443 198.572 262.271V264.29C198.544 264.81 198.394 265.316 198.133 265.767C197.873 266.218 197.51 266.601 197.074 266.885L188.062 272.088C187.236 272.566 186.565 272.178 186.565 271.223V269.205C186.565 265.376 189.253 260.72 192.568 258.806Z" fill="#BBC0E6"/>
<path d="M184.791 254.315C186.451 253.356 187.956 253.268 189.043 253.9L196.808 258.382C195.722 257.759 194.224 257.85 192.568 258.806C189.253 260.72 186.565 265.376 186.565 269.205V271.223C186.546 271.407 186.576 271.592 186.651 271.761C186.726 271.929 186.843 272.076 186.992 272.185L179.257 267.717C178.968 267.569 178.787 267.227 178.787 266.732V264.714C178.787 260.885 181.475 256.23 184.791 254.315Z" fill="url(#paint71_linear_265_761)"/>
<path style="mix-blend-mode:multiply" d="M184.16 280.321L179.699 275.473L177.352 277.667L181.813 282.515L184.16 280.321Z" fill="url(#paint72_linear_265_761)"/>
<path d="M180.813 277.952C180.778 277.314 180.594 276.693 180.274 276.139C179.955 275.585 179.509 275.115 178.974 274.766C177.957 274.179 177.134 274.655 177.134 275.828C177.168 276.466 177.353 277.088 177.672 277.642C177.992 278.195 178.438 278.666 178.974 279.015C179.99 279.603 180.813 279.125 180.813 277.952ZM163.092 285.052C163.337 285.171 163.593 285.268 163.856 285.342C163.969 285.374 164.087 285.384 164.204 285.37C164.321 285.356 164.434 285.319 164.536 285.261C164.639 285.204 164.729 285.126 164.801 285.033C164.873 284.94 164.926 284.834 164.957 284.72C164.988 284.606 164.996 284.488 164.98 284.371C164.965 284.254 164.926 284.142 164.867 284.04C164.808 283.939 164.729 283.85 164.635 283.779C164.541 283.708 164.434 283.656 164.32 283.627C163.64 283.382 163.012 283.01 162.471 282.531C162.298 282.371 162.068 282.287 161.833 282.296C161.598 282.306 161.376 282.408 161.216 282.582C161.056 282.755 160.972 282.984 160.982 283.22C160.991 283.455 161.094 283.677 161.267 283.837C161.818 284.322 162.431 284.731 163.092 285.052Z" fill="#121047"/>
<path d="M177.546 275.188C177.214 275.503 176.969 275.899 176.835 276.336C176.7 276.774 176.681 277.239 176.779 277.686C177.534 281.117 176.359 284.286 173.049 285.417C170.832 286.175 167.972 283.856 166.42 282.252C164.58 281.028 162.179 282.862 164.007 284.983C165.835 287.105 170.008 289.834 174.311 288.624C178.996 287.307 181.923 282.412 180.148 276.555C179.507 275.163 178.276 274.36 177.546 275.188Z" fill="url(#paint73_linear_265_761)"/>
<path d="M166.437 279.836C166.428 279.563 166.395 279.291 166.337 279.024C166.285 278.794 166.143 278.594 165.944 278.469C165.744 278.343 165.503 278.302 165.273 278.355C165.044 278.407 164.844 278.548 164.719 278.748C164.593 278.947 164.552 279.188 164.604 279.418C164.706 280.134 164.67 280.862 164.5 281.564C164.443 281.791 164.478 282.03 164.597 282.232C164.716 282.433 164.909 282.579 165.135 282.639C165.361 282.698 165.601 282.666 165.804 282.55C166.006 282.434 166.155 282.243 166.218 282.017C166.389 281.303 166.462 280.57 166.437 279.836Z" fill="#121047"/>
<path d="M164.381 283.32C164.464 283.151 164.492 282.959 164.459 282.773C164.426 282.587 164.335 282.416 164.199 282.285C163.719 281.745 163.347 281.118 163.102 280.438C163.026 280.215 162.865 280.03 162.654 279.926C162.442 279.822 162.198 279.805 161.975 279.881C161.752 279.956 161.568 280.118 161.463 280.329C161.359 280.54 161.342 280.784 161.418 281.008C161.628 281.623 162.233 282.863 162.97 283.57C163.14 283.733 163.368 283.821 163.604 283.816C163.839 283.811 164.063 283.713 164.226 283.543C164.289 283.477 164.341 283.402 164.381 283.32Z" fill="#131147"/>
<path d="M194.55 271.073C194.482 271.073 194.415 271.06 194.352 271.034C194.289 271.008 194.232 270.97 194.184 270.921C194.136 270.873 194.098 270.816 194.072 270.753C194.046 270.691 194.032 270.623 194.033 270.555V269.299C194.021 269.029 193.949 268.766 193.822 268.527C193.696 268.288 193.517 268.08 193.3 267.919L192.31 267.348C192.191 267.279 192.104 267.166 192.068 267.033C192.033 266.901 192.051 266.759 192.12 266.641C192.189 266.522 192.302 266.435 192.435 266.399C192.567 266.364 192.709 266.382 192.827 266.451L193.818 267.022C194.192 267.275 194.501 267.613 194.719 268.009C194.936 268.405 195.056 268.848 195.068 269.299V270.555C195.068 270.623 195.055 270.691 195.029 270.753C195.003 270.816 194.965 270.873 194.916 270.921C194.868 270.97 194.811 271.008 194.748 271.034C194.686 271.06 194.618 271.073 194.55 271.073Z" fill="#5652CC"/>
<path d="M196.3 270.071C196.232 270.071 196.165 270.058 196.102 270.032C196.039 270.006 195.982 269.968 195.934 269.92C195.886 269.872 195.848 269.815 195.822 269.752C195.796 269.689 195.782 269.622 195.782 269.554V268.297C195.77 268.027 195.699 267.763 195.572 267.524C195.445 267.286 195.267 267.078 195.05 266.917L194.059 266.345C193.999 266.312 193.945 266.267 193.902 266.213C193.859 266.159 193.827 266.097 193.808 266.03C193.789 265.964 193.784 265.894 193.793 265.825C193.801 265.757 193.824 265.69 193.858 265.63C193.893 265.571 193.939 265.518 193.995 265.477C194.05 265.435 194.113 265.405 194.18 265.388C194.247 265.371 194.317 265.368 194.385 265.378C194.454 265.389 194.519 265.413 194.578 265.449L195.568 266.02C195.943 266.273 196.251 266.611 196.469 267.007C196.686 267.403 196.806 267.846 196.818 268.297V269.554C196.818 269.622 196.805 269.689 196.779 269.752C196.753 269.815 196.714 269.872 196.666 269.92C196.618 269.968 196.561 270.006 196.498 270.032C196.436 270.058 196.368 270.071 196.3 270.071Z" fill="#B73251"/>
<defs>
<linearGradient id="paint0_linear_265_761" x1="95.0679" y1="335.243" x2="184.298" y2="335.243" gradientUnits="userSpaceOnUse">
<stop offset="0.534" stop-color="#C6CBE7"/>
<stop offset="0.834" stop-color="#EEF0F8"/>
<stop offset="1" stop-color="white"/>
</linearGradient>
<linearGradient id="paint1_linear_265_761" x1="168.207" y1="339.806" x2="171.459" y2="334.174" gradientUnits="userSpaceOnUse">
<stop stop-color="#4141AA"/>
<stop offset="0.237" stop-color="#3C3CA1"/>
<stop offset="0.622" stop-color="#2F2E89"/>
<stop offset="1" stop-color="#1E1C6B"/>
</linearGradient>
<linearGradient id="paint2_linear_265_761" x1="146.864" y1="320.34" x2="147.621" y2="319.03" gradientUnits="userSpaceOnUse">
<stop stop-color="#4141AA"/>
<stop offset="0.237" stop-color="#3C3CA1"/>
<stop offset="0.622" stop-color="#2F2E89"/>
<stop offset="1" stop-color="#1E1C6B"/>
</linearGradient>
<linearGradient id="paint3_linear_265_761" x1="138.88" y1="335.29" x2="171.38" y2="335.29" gradientUnits="userSpaceOnUse">
<stop stop-color="#C6CBE7"/>
<stop offset="0.835" stop-color="#F5F6FB"/>
<stop offset="1" stop-color="white"/>
</linearGradient>
<linearGradient id="paint4_linear_265_761" x1="45.5039" y1="210.932" x2="98.646" y2="210.932" gradientUnits="userSpaceOnUse">
<stop offset="0.331" stop-color="#C2C9EB"/>
<stop offset="0.577" stop-color="#D5DAF1"/>
<stop offset="1" stop-color="white"/>
</linearGradient>
<linearGradient id="paint5_linear_265_761" x1="57.4307" y1="204.793" x2="73.4847" y2="204.793" gradientUnits="userSpaceOnUse">
<stop stop-color="#B9BFE8"/>
<stop offset="1" stop-color="#D8DFF6"/>
</linearGradient>
<linearGradient id="paint6_linear_265_761" x1="52.8955" y1="216.622" x2="63.1379" y2="216.622" gradientUnits="userSpaceOnUse">
<stop stop-color="#B9BFE8"/>
<stop offset="1" stop-color="#CCD2FA"/>
</linearGradient>
<linearGradient id="paint7_linear_265_761" x1="77.4121" y1="216.529" x2="67.5733" y2="216.68" gradientUnits="userSpaceOnUse">
<stop stop-color="#CCD2FA"/>
<stop offset="1" stop-color="#B9BFE8"/>
</linearGradient>
<linearGradient id="paint8_linear_265_761" x1="78.4068" y1="208.655" x2="85.3916" y2="208.655" gradientUnits="userSpaceOnUse">
<stop offset="0.404" stop-color="#B9BFE8"/>
<stop offset="1" stop-color="#CCD2FA"/>
</linearGradient>
<linearGradient id="paint9_linear_265_761" x1="138.552" y1="181.494" x2="213.645" y2="181.494" gradientUnits="userSpaceOnUse">
<stop stop-color="#C6CBE7"/>
<stop offset="0.241" stop-color="#CCD1EA"/>
<stop offset="0.578" stop-color="#DFE1F1"/>
<stop offset="0.969" stop-color="#FCFDFE"/>
<stop offset="1" stop-color="white"/>
</linearGradient>
<linearGradient id="paint10_linear_265_761" x1="132.506" y1="187.17" x2="198.754" y2="187.17" gradientUnits="userSpaceOnUse">
<stop offset="0.242" stop-color="#5555C6"/>
<stop offset="0.305" stop-color="#5453C4"/>
<stop offset="0.339" stop-color="#4F4EBC"/>
<stop offset="0.365" stop-color="#4746AE"/>
<stop offset="0.388" stop-color="#3B399B"/>
<stop offset="0.399" stop-color="#34318F"/>
</linearGradient>
<linearGradient id="paint11_linear_265_761" x1="108.117" y1="188.52" x2="190.632" y2="45.5993" gradientUnits="userSpaceOnUse">
<stop offset="0.394" stop-color="#4141AA"/>
<stop offset="0.409" stop-color="#4646B1"/>
<stop offset="0.432" stop-color="#5555C5"/>
<stop offset="0.457" stop-color="#6A6AE2"/>
</linearGradient>
<linearGradient id="paint12_linear_265_761" x1="276.187" y1="172.548" x2="233.728" y2="172.548" gradientUnits="userSpaceOnUse">
<stop offset="0.264" stop-color="#362E94"/>
<stop offset="0.32" stop-color="#4039A4"/>
<stop offset="0.428" stop-color="#5954CD"/>
<stop offset="0.494" stop-color="#6B67E9"/>
</linearGradient>
<linearGradient id="paint13_linear_265_761" x1="264.418" y1="211.921" x2="384.638" y2="211.921" gradientUnits="userSpaceOnUse">
<stop stop-color="#C6CBE7"/>
<stop offset="0.018" stop-color="#C7CCE8"/>
<stop offset="0.665" stop-color="#F0F1F8"/>
<stop offset="1" stop-color="white"/>
</linearGradient>
<linearGradient id="paint14_linear_265_761" x1="301.697" y1="199.942" x2="292.742" y2="199.942" gradientUnits="userSpaceOnUse">
<stop stop-color="#20196F"/>
<stop offset="0.106" stop-color="#26207B"/>
<stop offset="0.485" stop-color="#3A36A1"/>
<stop offset="0.685" stop-color="#423EAF"/>
</linearGradient>
<linearGradient id="paint15_linear_265_761" x1="313.281" y1="248.377" x2="375.29" y2="248.377" gradientUnits="userSpaceOnUse">
<stop stop-color="#C6CBE7"/>
<stop offset="1" stop-color="white"/>
</linearGradient>
<linearGradient id="paint16_linear_265_761" x1="295.954" y1="238.23" x2="351.302" y2="238.23" gradientUnits="userSpaceOnUse">
<stop stop-color="#C6CBE7"/>
<stop offset="0.362" stop-color="#C9CDE8"/>
<stop offset="0.584" stop-color="#D1D5EC"/>
<stop offset="0.768" stop-color="#DFE2F2"/>
<stop offset="0.931" stop-color="#F4F5FA"/>
<stop offset="1" stop-color="white"/>
</linearGradient>
<linearGradient id="paint17_linear_265_761" x1="290.911" y1="238.23" x2="346.259" y2="238.23" gradientUnits="userSpaceOnUse">
<stop stop-color="#C6CBE7"/>
<stop offset="1" stop-color="#DCE1F4"/>
</linearGradient>
<linearGradient id="paint18_linear_265_761" x1="289.229" y1="243.144" x2="344.839" y2="243.144" gradientUnits="userSpaceOnUse">
<stop stop-color="#6A6AE2"/>
<stop offset="0.488" stop-color="#4443A6"/>
<stop offset="1" stop-color="#1E1C6B"/>
</linearGradient>
<linearGradient id="paint19_linear_265_761" x1="283.047" y1="260.816" x2="277.798" y2="250.975" gradientUnits="userSpaceOnUse">
<stop stop-color="#34318F"/>
<stop offset="1" stop-color="#5555C6"/>
</linearGradient>
<radialGradient id="paint20_radial_265_761" cx="0" cy="0" r="1" gradientUnits="userSpaceOnUse" gradientTransform="translate(262.387 262.725) scale(9.58518 9.58517)">
<stop stop-color="#7F7FF4"/>
<stop offset="0.142" stop-color="#7171E2"/>
<stop offset="0.528" stop-color="#504EB5"/>
<stop offset="0.826" stop-color="#3C3999"/>
<stop offset="1" stop-color="#34318F"/>
</radialGradient>
<linearGradient id="paint21_linear_265_761" x1="197.782" y1="244.796" x2="247.985" y2="244.796" gradientUnits="userSpaceOnUse">
<stop offset="0.438" stop-color="#C2C9EB"/>
<stop offset="0.569" stop-color="#C7CEED"/>
<stop offset="0.734" stop-color="#D7DCF2"/>
<stop offset="0.917" stop-color="#F1F2FA"/>
<stop offset="1" stop-color="white"/>
</linearGradient>
<linearGradient id="paint22_linear_265_761" x1="194.989" y1="232.726" x2="197.372" y2="226.87" gradientUnits="userSpaceOnUse">
<stop stop-color="#B9BFE8"/>
<stop offset="0.247" stop-color="#C2C7EB"/>
<stop offset="0.65" stop-color="#DBDDF2"/>
<stop offset="1" stop-color="#F5F5FA"/>
</linearGradient>
<linearGradient id="paint23_linear_265_761" x1="192.352" y1="228.406" x2="193.306" y2="226.537" gradientUnits="userSpaceOnUse">
<stop stop-color="#231574"/>
<stop offset="0.212" stop-color="#2B1E83"/>
<stop offset="0.616" stop-color="#4135A9"/>
<stop offset="1" stop-color="#584FD3"/>
</linearGradient>
<linearGradient id="paint24_linear_265_761" x1="261.301" y1="302.763" x2="248.197" y2="281.162" gradientUnits="userSpaceOnUse">
<stop stop-color="#BBC0E6"/>
<stop offset="1" stop-color="#F6F6FB"/>
</linearGradient>
<linearGradient id="paint25_linear_265_761" x1="246.862" y1="314.397" x2="331.99" y2="314.397" gradientUnits="userSpaceOnUse">
<stop stop-color="#C4CAE8"/>
<stop offset="0.375" stop-color="#C6CCE9"/>
<stop offset="0.59" stop-color="#CFD4EC"/>
<stop offset="0.764" stop-color="#DDE0F2"/>
<stop offset="0.915" stop-color="#F0F2F9"/>
<stop offset="1" stop-color="white"/>
</linearGradient>
<linearGradient id="paint26_linear_265_761" x1="64.2634" y1="275.21" x2="94.3487" y2="275.21" gradientUnits="userSpaceOnUse">
<stop stop-color="#C4C9E5"/>
<stop offset="0.241" stop-color="#DDE0F0"/>
<stop offset="0.539" stop-color="#F6F7FB"/>
<stop offset="0.719" stop-color="white"/>
</linearGradient>
<linearGradient id="paint27_linear_265_761" x1="51.6343" y1="284.034" x2="80.4297" y2="284.034" gradientUnits="userSpaceOnUse">
<stop stop-color="#C4C9E5"/>
<stop offset="0.241" stop-color="#DDE0F0"/>
<stop offset="0.539" stop-color="#F6F7FB"/>
<stop offset="0.719" stop-color="white"/>
</linearGradient>
<linearGradient id="paint28_linear_265_761" x1="39.0056" y1="292.859" x2="65.5087" y2="292.859" gradientUnits="userSpaceOnUse">
<stop stop-color="#C4C9E5"/>
<stop offset="0.241" stop-color="#DDE0F0"/>
<stop offset="0.539" stop-color="#F6F7FB"/>
<stop offset="0.719" stop-color="white"/>
</linearGradient>
<linearGradient id="paint29_linear_265_761" x1="223.732" y1="216.115" x2="238.045" y2="216.115" gradientUnits="userSpaceOnUse">
<stop stop-color="#D1D7F3"/>
<stop offset="0.301" stop-color="#E5E8F8"/>
<stop offset="0.766" stop-color="white"/>
</linearGradient>
<linearGradient id="paint30_linear_265_761" x1="224.421" y1="215.293" x2="216.121" y2="215.293" gradientUnits="userSpaceOnUse">
<stop stop-color="#BBC0E6"/>
<stop offset="0.449" stop-color="#D7DAF0"/>
<stop offset="1" stop-color="#F6F6FB"/>
</linearGradient>
<linearGradient id="paint31_linear_265_761" x1="224.409" y1="216.17" x2="216.155" y2="216.17" gradientUnits="userSpaceOnUse">
<stop stop-color="#F6F6FB"/>
<stop offset="1" stop-color="#DAE0F5"/>
</linearGradient>
<linearGradient id="paint32_linear_265_761" x1="221.887" y1="214.903" x2="220.367" y2="181.773" gradientUnits="userSpaceOnUse">
<stop stop-color="#423EAF"/>
<stop offset="1" stop-color="#20196F"/>
</linearGradient>
<linearGradient id="paint33_linear_265_761" x1="214.662" y1="180.959" x2="222.417" y2="180.959" gradientUnits="userSpaceOnUse">
<stop offset="0.381" stop-color="#CED3F8"/>
<stop offset="0.545" stop-color="#D3D8F9"/>
<stop offset="0.751" stop-color="#E3E6FB"/>
<stop offset="0.979" stop-color="#FCFCFF"/>
<stop offset="1" stop-color="white"/>
</linearGradient>
<linearGradient id="paint34_linear_265_761" x1="213.618" y1="184.792" x2="222.417" y2="184.792" gradientUnits="userSpaceOnUse">
<stop stop-color="white"/>
<stop offset="1" stop-color="#CED3F8"/>
</linearGradient>
<linearGradient id="paint35_linear_265_761" x1="214.785" y1="220.975" x2="229.098" y2="220.975" gradientUnits="userSpaceOnUse">
<stop stop-color="#D1D7F3"/>
<stop offset="0.301" stop-color="#E5E8F8"/>
<stop offset="0.766" stop-color="white"/>
</linearGradient>
<linearGradient id="paint36_linear_265_761" x1="215.475" y1="220.18" x2="207.174" y2="220.18" gradientUnits="userSpaceOnUse">
<stop stop-color="#BBC0E6"/>
<stop offset="0.449" stop-color="#D7DAF0"/>
<stop offset="1" stop-color="#F6F6FB"/>
</linearGradient>
<linearGradient id="paint37_linear_265_761" x1="215.462" y1="221.057" x2="207.208" y2="221.057" gradientUnits="userSpaceOnUse">
<stop stop-color="#F6F6FB"/>
<stop offset="1" stop-color="#DAE0F5"/>
</linearGradient>
<linearGradient id="paint38_linear_265_761" x1="212.94" y1="219.79" x2="211.419" y2="186.66" gradientUnits="userSpaceOnUse">
<stop stop-color="#423EAF"/>
<stop offset="1" stop-color="#20196F"/>
</linearGradient>
<linearGradient id="paint39_linear_265_761" x1="223.425" y1="178.481" x2="222.351" y2="158.791" gradientUnits="userSpaceOnUse">
<stop stop-color="#423EAF"/>
<stop offset="1" stop-color="#20196F"/>
</linearGradient>
<linearGradient id="paint40_linear_265_761" x1="208.312" y1="167.136" x2="202.589" y2="161.412" gradientUnits="userSpaceOnUse">
<stop stop-color="#20196F"/>
<stop offset="1" stop-color="#423EAF"/>
</linearGradient>
<linearGradient id="paint41_linear_265_761" x1="214.629" y1="159.349" x2="223.148" y2="159.349" gradientUnits="userSpaceOnUse">
<stop stop-color="#CED3F8"/>
<stop offset="1" stop-color="white"/>
</linearGradient>
<linearGradient id="paint42_linear_265_761" x1="216.64" y1="156.774" x2="211.798" y2="159.944" gradientUnits="userSpaceOnUse">
<stop stop-color="#362E94"/>
<stop offset="1" stop-color="#5652CC"/>
</linearGradient>
<linearGradient id="paint43_linear_265_761" x1="218.677" y1="148.381" x2="209.534" y2="154.319" gradientUnits="userSpaceOnUse">
<stop stop-color="#F6F6FB"/>
<stop offset="0.551" stop-color="#D7DAF0"/>
<stop offset="1" stop-color="#BBC0E6"/>
</linearGradient>
<linearGradient id="paint44_linear_265_761" x1="215.999" y1="153.648" x2="209.766" y2="153.648" gradientUnits="userSpaceOnUse">
<stop stop-color="#CED3F8"/>
<stop offset="0.04" stop-color="#D2D7F9"/>
<stop offset="0.327" stop-color="#EBEDFC"/>
<stop offset="0.589" stop-color="#FAFAFE"/>
<stop offset="0.803" stop-color="white"/>
</linearGradient>
<linearGradient id="paint45_linear_265_761" x1="217.346" y1="180.619" x2="217.346" y2="161.628" gradientUnits="userSpaceOnUse">
<stop stop-color="#CED3F8"/>
<stop offset="1" stop-color="white"/>
</linearGradient>
<linearGradient id="paint46_linear_265_761" x1="135.816" y1="264.949" x2="148.403" y2="286.749" gradientUnits="userSpaceOnUse">
<stop stop-color="#D1D7F3"/>
<stop offset="0.308" stop-color="#DBE0F6"/>
<stop offset="0.83" stop-color="#F6F7FD"/>
<stop offset="0.989" stop-color="white"/>
</linearGradient>
<linearGradient id="paint47_linear_265_761" x1="141.93" y1="266.823" x2="133.916" y2="252.943" gradientUnits="userSpaceOnUse">
<stop stop-color="#F6F6FB"/>
<stop offset="1" stop-color="#BBC0E6"/>
</linearGradient>
<linearGradient id="paint48_linear_265_761" x1="149.153" y1="265.428" x2="138.735" y2="247.383" gradientUnits="userSpaceOnUse">
<stop stop-color="#1F196F"/>
<stop offset="1" stop-color="#5652CC"/>
</linearGradient>
<linearGradient id="paint49_linear_265_761" x1="146.435" y1="240.811" x2="151.967" y2="238.781" gradientUnits="userSpaceOnUse">
<stop stop-color="#1F196F"/>
<stop offset="0.134" stop-color="#27227D"/>
<stop offset="0.718" stop-color="#4944B6"/>
<stop offset="1" stop-color="#5652CC"/>
</linearGradient>
<linearGradient id="paint50_linear_265_761" x1="143.708" y1="262.162" x2="118.359" y2="262.162" gradientUnits="userSpaceOnUse">
<stop offset="0.411" stop-color="#A3A9D0"/>
<stop offset="0.456" stop-color="#A8ADD4"/>
<stop offset="0.676" stop-color="#BBC0E6"/>
</linearGradient>
<linearGradient id="paint51_linear_265_761" x1="136.887" y1="268.663" x2="124.792" y2="247.715" gradientUnits="userSpaceOnUse">
<stop stop-color="#A7AED5"/>
<stop offset="0.011" stop-color="#AEB5D8"/>
<stop offset="0.07" stop-color="#D1D5E9"/>
<stop offset="0.126" stop-color="#EAECF5"/>
<stop offset="0.176" stop-color="#FAFAFC"/>
<stop offset="0.217" stop-color="white"/>
</linearGradient>
<linearGradient id="paint52_linear_265_761" x1="121.881" y1="278.416" x2="113.867" y2="264.535" gradientUnits="userSpaceOnUse">
<stop stop-color="#F6F6FB"/>
<stop offset="1" stop-color="#BBC0E6"/>
</linearGradient>
<linearGradient id="paint53_linear_265_761" x1="129.104" y1="277.02" x2="118.687" y2="258.976" gradientUnits="userSpaceOnUse">
<stop stop-color="#1F196F"/>
<stop offset="1" stop-color="#5652CC"/>
</linearGradient>
<linearGradient id="paint54_linear_265_761" x1="146.326" y1="245.053" x2="115.738" y2="245.053" gradientUnits="userSpaceOnUse">
<stop offset="0.514" stop-color="#BBC0E6"/>
<stop offset="0.682" stop-color="#CED3F8"/>
</linearGradient>
<linearGradient id="paint55_linear_265_761" x1="122.322" y1="232.821" x2="146.325" y2="232.821" gradientUnits="userSpaceOnUse">
<stop stop-color="#D1D7F3"/>
<stop offset="0.286" stop-color="#D9DEF5"/>
<stop offset="0.725" stop-color="#EEF0FB"/>
<stop offset="1" stop-color="white"/>
</linearGradient>
<linearGradient id="paint56_linear_265_761" x1="140.911" y1="225.694" x2="133.332" y2="238.822" gradientUnits="userSpaceOnUse">
<stop offset="0.197" stop-color="#CED3F8"/>
<stop offset="0.304" stop-color="#E1E4F9"/>
<stop offset="0.4" stop-color="#F6F6FB"/>
</linearGradient>
<linearGradient id="paint57_linear_265_761" x1="130.808" y1="236.352" x2="141.163" y2="224.779" gradientUnits="userSpaceOnUse">
<stop stop-color="#1F196F"/>
<stop offset="0.255" stop-color="#2A2582"/>
<stop offset="0.772" stop-color="#4843B4"/>
<stop offset="1" stop-color="#5652CC"/>
</linearGradient>
<linearGradient id="paint58_linear_265_761" x1="136.023" y1="232.271" x2="132.296" y2="228.106" gradientUnits="userSpaceOnUse">
<stop stop-color="#C4CAE8"/>
<stop offset="0.497" stop-color="#DBDEF1"/>
<stop offset="1" stop-color="#F6F6FB"/>
</linearGradient>
<linearGradient id="paint59_linear_265_761" x1="134.297" y1="220.611" x2="125.625" y2="235.631" gradientUnits="userSpaceOnUse">
<stop stop-color="white"/>
<stop offset="0.389" stop-color="#E9EBFC"/>
<stop offset="0.784" stop-color="#CED3F8"/>
</linearGradient>
<linearGradient id="paint60_linear_265_761" x1="120.487" y1="242.181" x2="125.096" y2="247.111" gradientUnits="userSpaceOnUse">
<stop stop-color="#D1D7F3"/>
<stop offset="0.51" stop-color="#EEF0FB"/>
<stop offset="0.893" stop-color="white"/>
</linearGradient>
<linearGradient id="paint61_linear_265_761" x1="116.776" y1="242.884" x2="131.226" y2="259.468" gradientUnits="userSpaceOnUse">
<stop stop-color="#5652CC"/>
<stop offset="0.282" stop-color="#4944B6"/>
<stop offset="0.866" stop-color="#27227D"/>
<stop offset="1" stop-color="#1F196F"/>
</linearGradient>
<linearGradient id="paint62_linear_265_761" x1="193.63" y1="298.96" x2="205.916" y2="320.24" gradientUnits="userSpaceOnUse">
<stop stop-color="#D1D7F3"/>
<stop offset="0.308" stop-color="#DBE0F6"/>
<stop offset="0.83" stop-color="#F6F7FD"/>
<stop offset="0.989" stop-color="white"/>
</linearGradient>
<linearGradient id="paint63_linear_265_761" x1="199.65" y1="300.81" x2="191.827" y2="287.261" gradientUnits="userSpaceOnUse">
<stop stop-color="#F6F6FB"/>
<stop offset="1" stop-color="#BBC0E6"/>
</linearGradient>
<linearGradient id="paint64_linear_265_761" x1="206.702" y1="299.449" x2="196.532" y2="281.835" gradientUnits="userSpaceOnUse">
<stop stop-color="#1F196F"/>
<stop offset="1" stop-color="#5652CC"/>
</linearGradient>
<linearGradient id="paint65_linear_265_761" x1="201.387" y1="296.26" x2="176.642" y2="296.26" gradientUnits="userSpaceOnUse">
<stop offset="0.411" stop-color="#A3A9D0"/>
<stop offset="0.456" stop-color="#A8ADD4"/>
<stop offset="0.676" stop-color="#BBC0E6"/>
</linearGradient>
<linearGradient id="paint66_linear_265_761" x1="194.728" y1="302.606" x2="182.922" y2="282.158" gradientUnits="userSpaceOnUse">
<stop stop-color="#A7AED5"/>
<stop offset="0.011" stop-color="#AEB5D8"/>
<stop offset="0.07" stop-color="#D1D5E9"/>
<stop offset="0.126" stop-color="#EAECF5"/>
<stop offset="0.176" stop-color="#FAFAFC"/>
<stop offset="0.217" stop-color="white"/>
</linearGradient>
<linearGradient id="paint67_linear_265_761" x1="180.081" y1="312.126" x2="172.259" y2="298.577" gradientUnits="userSpaceOnUse">
<stop stop-color="#F6F6FB"/>
<stop offset="1" stop-color="#BBC0E6"/>
</linearGradient>
<linearGradient id="paint68_linear_265_761" x1="187.132" y1="310.765" x2="176.962" y2="293.151" gradientUnits="userSpaceOnUse">
<stop stop-color="#1F196F"/>
<stop offset="1" stop-color="#5652CC"/>
</linearGradient>
<linearGradient id="paint69_linear_265_761" x1="203.941" y1="279.56" x2="174.084" y2="279.56" gradientUnits="userSpaceOnUse">
<stop offset="0.514" stop-color="#BBC0E6"/>
<stop offset="0.682" stop-color="#CED3F8"/>
</linearGradient>
<linearGradient id="paint70_linear_265_761" x1="179.079" y1="266.685" x2="203.942" y2="266.685" gradientUnits="userSpaceOnUse">
<stop stop-color="#D1D7F3"/>
<stop offset="0.286" stop-color="#D9DEF5"/>
<stop offset="0.725" stop-color="#EEF0FB"/>
<stop offset="1" stop-color="white"/>
</linearGradient>
<linearGradient id="paint71_linear_265_761" x1="190.8" y1="254.913" x2="182.369" y2="269.516" gradientUnits="userSpaceOnUse">
<stop stop-color="#F6F6FB"/>
<stop offset="0.464" stop-color="#E0E3F9"/>
<stop offset="0.784" stop-color="#CED3F8"/>
</linearGradient>
<linearGradient id="paint72_linear_265_761" x1="178.521" y1="276.606" x2="183.019" y2="281.42" gradientUnits="userSpaceOnUse">
<stop stop-color="#D1D7F3"/>
<stop offset="0.51" stop-color="#EEF0FB"/>
<stop offset="0.893" stop-color="white"/>
</linearGradient>
<linearGradient id="paint73_linear_265_761" x1="166.956" y1="287.449" x2="180.418" y2="277.362" gradientUnits="userSpaceOnUse">
<stop stop-color="#5652CC"/>
<stop offset="0.282" stop-color="#4944B6"/>
<stop offset="0.866" stop-color="#27227D"/>
<stop offset="1" stop-color="#1F196F"/>
</linearGradient>
</defs>
</svg>
