<svg width="233" height="55" viewBox="0 0 233 55" fill="none" xmlns="http://www.w3.org/2000/svg">
<path d="M15.9375 15.9375H35.0625V35.0625H15.9375V15.9375Z" fill="white"/>
<path d="M47.8125 19.7227V15.3398H44.625V8.76562C44.625 8.13159 44.3731 7.52353 43.9248 7.0752C43.4765 6.62687 42.8684 6.375 42.2344 6.375H35.6602V3.1875H31.2773V6.375H27.6914V3.1875H23.3086V6.375H19.7227V3.1875H15.3398V6.375H8.76562C8.13159 6.375 7.52353 6.62687 7.0752 7.0752C6.62687 7.52353 6.375 8.13159 6.375 8.76562V15.3398H3.1875V19.7227H6.375V23.3086H3.1875V27.6914H6.375V31.2773H3.1875V35.6602H6.375V42.2344C6.375 42.8684 6.62687 43.4765 7.0752 43.9248C7.52353 44.3731 8.13159 44.625 8.76562 44.625H15.3398V47.8125H19.7227V44.625H23.3086V47.8125H27.6914V44.625H31.2773V47.8125H35.6602V44.625H42.2344C42.8684 44.625 43.4765 44.3731 43.9248 43.9248C44.3731 43.4765 44.625 42.8684 44.625 42.2344V35.6602H47.8125V31.2773H44.625V27.6914H47.8125V23.3086H44.625V19.7227H47.8125ZM12.75 12.75H38.25V38.25H12.75V12.75Z" fill="white"/>
<path d="M56.6875 40V13.8182H67.9886C69.9318 13.8182 71.6321 14.2017 73.0895 14.9688C74.5469 15.7358 75.6804 16.8139 76.4901 18.2031C77.2997 19.5923 77.7045 21.2159 77.7045 23.0739C77.7045 24.9489 77.2869 26.5724 76.4517 27.9446C75.625 29.3168 74.4616 30.3736 72.9616 31.1151C71.4702 31.8565 69.7273 32.2273 67.733 32.2273H60.983V26.7045H66.3011C67.1364 26.7045 67.848 26.5597 68.4361 26.2699C69.0327 25.9716 69.4886 25.5497 69.804 25.0043C70.1278 24.4588 70.2898 23.8153 70.2898 23.0739C70.2898 22.3239 70.1278 21.6847 69.804 21.1562C69.4886 20.6193 69.0327 20.2102 68.4361 19.929C67.848 19.6392 67.1364 19.4943 66.3011 19.4943H63.7955V40H56.6875ZM104.756 23.6364H97.5455C97.4943 23.0398 97.358 22.4986 97.1364 22.0128C96.9233 21.527 96.625 21.1094 96.2415 20.7599C95.8665 20.402 95.4105 20.1293 94.8736 19.9418C94.3366 19.7457 93.7273 19.6477 93.0455 19.6477C91.8523 19.6477 90.8423 19.9375 90.0156 20.517C89.1974 21.0966 88.5753 21.9276 88.1491 23.0099C87.7315 24.0923 87.5227 25.392 87.5227 26.9091C87.5227 28.5114 87.7358 29.8537 88.1619 30.9361C88.5966 32.0099 89.223 32.8196 90.0412 33.3651C90.8594 33.902 91.8438 34.1705 92.9943 34.1705C93.6506 34.1705 94.2386 34.0895 94.7585 33.9276C95.2784 33.7571 95.7301 33.5142 96.1136 33.1989C96.4972 32.8835 96.8082 32.5043 97.0469 32.0611C97.294 31.6094 97.4602 31.1023 97.5455 30.5398L104.756 30.5909C104.67 31.6989 104.359 32.8281 103.822 33.9787C103.286 35.1207 102.523 36.1776 101.534 37.1491C100.554 38.1122 99.3395 38.8878 97.8906 39.4759C96.4418 40.0639 94.7585 40.358 92.8409 40.358C90.4375 40.358 88.2812 39.8423 86.3722 38.8111C84.4716 37.7798 82.9673 36.2628 81.8594 34.2599C80.7599 32.2571 80.2102 29.8068 80.2102 26.9091C80.2102 23.9943 80.7727 21.5398 81.8977 19.5455C83.0227 17.5426 84.5398 16.0298 86.4489 15.0071C88.358 13.9759 90.4886 13.4602 92.8409 13.4602C94.4943 13.4602 96.0156 13.6861 97.4048 14.1378C98.794 14.5895 100.013 15.25 101.061 16.1193C102.109 16.9801 102.953 18.0412 103.592 19.3026C104.232 20.5639 104.619 22.0085 104.756 23.6364Z" fill="white"/>
<path d="M117.543 40.358C115.412 40.358 113.588 39.9361 112.071 39.0923C110.554 38.2401 109.391 37.0554 108.581 35.5384C107.772 34.0128 107.367 32.2443 107.367 30.233C107.367 28.2216 107.772 26.4574 108.581 24.9403C109.391 23.4148 110.554 22.2301 112.071 21.3864C113.588 20.5341 115.412 20.108 117.543 20.108C119.469 20.108 121.135 20.4574 122.542 21.1562C123.956 21.8466 125.051 22.8267 125.827 24.0966C126.603 25.358 126.995 26.8409 127.003 28.5455H120.458C120.364 27.5142 120.066 26.7301 119.563 26.1932C119.069 25.6477 118.429 25.375 117.645 25.375C117.032 25.375 116.495 25.554 116.034 25.9119C115.574 26.2614 115.216 26.794 114.961 27.5099C114.705 28.2173 114.577 29.108 114.577 30.1818C114.577 31.2557 114.705 32.1506 114.961 32.8665C115.216 33.5739 115.574 34.1065 116.034 34.4645C116.495 34.8139 117.032 34.9886 117.645 34.9886C118.165 34.9886 118.625 34.8693 119.026 34.6307C119.426 34.3835 119.75 34.0256 119.998 33.5568C120.253 33.0795 120.407 32.5 120.458 31.8182H127.003C126.978 33.5483 126.581 35.0568 125.814 36.3438C125.047 37.6222 123.961 38.6108 122.554 39.3097C121.157 40.0085 119.486 40.358 117.543 40.358ZM136.972 28.9545V40H129.915V13.8182H136.716V24.0966H136.92C137.364 22.8437 138.101 21.8679 139.132 21.169C140.163 20.4616 141.403 20.108 142.852 20.108C144.241 20.108 145.447 20.4233 146.47 21.054C147.501 21.6847 148.298 22.554 148.861 23.6619C149.432 24.7699 149.713 26.0398 149.705 27.4716V40H142.648V28.9545C142.656 27.983 142.413 27.2202 141.919 26.6662C141.433 26.1122 140.739 25.8352 139.835 25.8352C139.264 25.8352 138.761 25.9631 138.327 26.2188C137.901 26.4659 137.568 26.8239 137.33 27.2926C137.099 27.7528 136.98 28.3068 136.972 28.9545ZM162.597 40.358C160.501 40.358 158.694 39.9574 157.177 39.1562C155.668 38.3466 154.505 37.1875 153.687 35.679C152.877 34.1619 152.472 32.3466 152.472 30.233C152.472 28.2045 152.881 26.4318 153.7 24.9148C154.518 23.3977 155.673 22.2173 157.164 21.3736C158.656 20.5298 160.415 20.108 162.444 20.108C163.927 20.108 165.269 20.3381 166.471 20.7983C167.673 21.2585 168.7 21.9276 169.552 22.8054C170.404 23.6747 171.06 24.7315 171.521 25.9759C171.981 27.2202 172.211 28.6222 172.211 30.1818V31.8182H154.671V27.9318H165.717C165.708 27.3693 165.563 26.875 165.282 26.4489C165.009 26.0142 164.638 25.6776 164.17 25.4389C163.71 25.1918 163.185 25.0682 162.597 25.0682C162.026 25.0682 161.502 25.1918 161.025 25.4389C160.548 25.6776 160.164 26.0099 159.874 26.4361C159.593 26.8622 159.444 27.3608 159.427 27.9318V32.125C159.427 32.7557 159.559 33.3182 159.823 33.8125C160.087 34.3068 160.467 34.6946 160.961 34.9759C161.455 35.2571 162.052 35.3977 162.751 35.3977C163.237 35.3977 163.68 35.3295 164.08 35.1932C164.489 35.0568 164.839 34.8608 165.129 34.6051C165.418 34.3409 165.631 34.0256 165.768 33.6591H172.211C171.989 35.0227 171.465 36.2074 170.638 37.2131C169.812 38.2102 168.717 38.9858 167.353 39.5398C165.998 40.0852 164.413 40.358 162.597 40.358ZM184.551 40.358C182.42 40.358 180.596 39.9361 179.079 39.0923C177.562 38.2401 176.399 37.0554 175.589 35.5384C174.779 34.0128 174.375 32.2443 174.375 30.233C174.375 28.2216 174.779 26.4574 175.589 24.9403C176.399 23.4148 177.562 22.2301 179.079 21.3864C180.596 20.5341 182.42 20.108 184.551 20.108C186.477 20.108 188.143 20.4574 189.549 21.1562C190.964 21.8466 192.059 22.8267 192.835 24.0966C193.61 25.358 194.002 26.8409 194.011 28.5455H187.466C187.372 27.5142 187.074 26.7301 186.571 26.1932C186.076 25.6477 185.437 25.375 184.653 25.375C184.039 25.375 183.502 25.554 183.042 25.9119C182.582 26.2614 182.224 26.794 181.968 27.5099C181.713 28.2173 181.585 29.108 181.585 30.1818C181.585 31.2557 181.713 32.1506 181.968 32.8665C182.224 33.5739 182.582 34.1065 183.042 34.4645C183.502 34.8139 184.039 34.9886 184.653 34.9886C185.173 34.9886 185.633 34.8693 186.034 34.6307C186.434 34.3835 186.758 34.0256 187.005 33.5568C187.261 33.0795 187.414 32.5 187.466 31.8182H194.011C193.985 33.5483 193.589 35.0568 192.822 36.3438C192.055 37.6222 190.968 38.6108 189.562 39.3097C188.164 40.0085 186.494 40.358 184.551 40.358ZM203.263 35.3466L203.315 26.9602H204.235L208.991 20.3636H216.917L208.94 30.642H206.945L203.263 35.3466ZM196.923 40V13.8182H203.979V40H196.923ZM209.042 40L204.542 32.2273L209.144 27.2159L217.121 40H209.042ZM218.755 40V20.3636H225.607V24.0966H225.811C226.169 22.7159 226.736 21.706 227.512 21.0668C228.296 20.4276 229.212 20.108 230.26 20.108C230.567 20.108 230.87 20.1335 231.168 20.1847C231.475 20.2273 231.769 20.2912 232.05 20.3764V26.3977C231.701 26.2784 231.27 26.1889 230.759 26.1293C230.248 26.0696 229.809 26.0398 229.442 26.0398C228.752 26.0398 228.13 26.1974 227.576 26.5128C227.03 26.8196 226.6 27.2543 226.284 27.8168C225.969 28.3707 225.811 29.0227 225.811 29.7727V40H218.755Z" fill="#6D25DC"/>
<path d="M40.5 30.8333C35.1713 30.8333 30.8334 35.1712 30.8334 40.5C30.8334 45.8287 35.1713 50.1667 40.5 50.1667C45.8288 50.1667 50.1667 45.8287 50.1667 40.5C50.1667 35.1712 45.8288 30.8333 40.5 30.8333ZM38.0834 46.5417L33.25 41.7083L34.9538 40.0046L38.0834 43.1221L46.0463 35.1592L47.75 36.875L38.0834 46.5417Z" fill="#6D25DC"/>
<path d="M40.5 28.4167C33.83 28.4167 28.4166 33.83 28.4166 40.5C28.4166 47.17 33.83 52.5833 40.5 52.5833C47.17 52.5833 52.5833 47.17 52.5833 40.5C52.5833 33.83 47.17 28.4167 40.5 28.4167ZM40.5 50.1667C35.1712 50.1667 30.8333 45.8288 30.8333 40.5C30.8333 35.1713 35.1712 30.8333 40.5 30.8333C45.8287 30.8333 50.1666 35.1713 50.1666 40.5C50.1666 45.8288 45.8287 50.1667 40.5 50.1667ZM46.0462 35.1592L38.0833 43.1221L34.9537 40.0046L33.25 41.7083L38.0833 46.5417L47.75 36.875L46.0462 35.1592Z" fill="#0F172A"/>
</svg>
