<svg id="SvgjsSvg1068" width="22" height="22" xmlns="http://www.w3.org/2000/svg" version="1.1" xmlns:xlink="http://www.w3.org/1999/xlink" xmlns:svgjs="http://svgjs.com/svgjs"><defs id="SvgjsDefs1069"></defs><g id="SvgjsG1070"><svg xmlns="http://www.w3.org/2000/svg" viewBox="0 0 24 24" width="22" height="22"><path fill="#2d9145" d="M23 9a1 1 0 0 1 1-1V6H0v2a1 1 0 1 1 0 2v8h8v-2a.5.5 0 1 1 1 0v2h15v-8a1 1 0 0 1-1-1z" class="color2D9145 svgShape"></path><path fill="#333333" d="M9.5 8h5v6h-5z" class="color333 svgShape"></path><path fill="#010101" d="M9.5 13.75h5V14h-5z" opacity=".2" class="color010101 svgShape"></path><path fill="#ffffff" d="M9.5 8h5v.25h-5z" opacity=".1" class="colorFFF svgShape"></path><path fill="#333333" d="M16 8h5v6h-5z" class="color333 svgShape"></path><path fill="#010101" d="M16 13.75h5V14h-5z" opacity=".2" class="color010101 svgShape"></path><path fill="#ffffff" d="M16 8h5v.25h-5z" opacity=".1" class="colorFFF svgShape"></path><path fill="#333333" d="M3 8h5v6H3z" class="color333 svgShape"></path><path fill="#010101" d="M3 13.75h5V14H3z" opacity=".2" class="color010101 svgShape"></path><path fill="#ffffff" d="M3 8h5v.25H3z" opacity=".1" class="colorFFF svgShape"></path><path fill="#e09f26" d="M9.5 16h5v2h-5z" class="colorE09F26 svgShape"></path><path fill="#ffcf51" d="M9.5 16h1v2h-1zM11.5 16h1v2h-1zM13.5 16h1v2h-1z" class="colorFFCF51 svgShape"></path><path fill="#e09f26" d="M15 16h9v2h-9zM0 16h8v2H0z" class="colorE09F26 svgShape"></path><path fill="#ffcf51" d="M16 16h1v2h-1zM18 16h1v2h-1zM20 16h1v2h-1zM22 16h1v2h-1zM1 16h1v2H1zM3 16h1v2H3zM5 16h1v2H5zM7 16h1v2H7z" class="colorFFCF51 svgShape"></path><path fill="#ffffff" d="M0 6h24v.25H0z" opacity=".2" class="colorFFF svgShape"></path><path fill="#010101" d="M0 17.75h8V18H0zM9 17.75h15V18H9z" opacity=".1" class="color010101 svgShape"></path><linearGradient id="a" x1="9.563" x2="14.437" y1="15.864" y2="18.136" gradientUnits="userSpaceOnUse"><stop offset="0" stop-color="#ffffff" stop-opacity=".2" class="stopColorFFF svgShape"></stop><stop offset="1" stop-color="#ffffff" stop-opacity="0" class="stopColorFFF svgShape"></stop></linearGradient><path fill="url(#a)" d="M9.5 16h5v2h-5z"></path><linearGradient id="b" x1="15.421" x2="23.579" y1="15.098" y2="18.902" gradientUnits="userSpaceOnUse"><stop offset="0" stop-color="#ffffff" stop-opacity=".2" class="stopColorFFF svgShape"></stop><stop offset="1" stop-color="#ffffff" stop-opacity="0" class="stopColorFFF svgShape"></stop></linearGradient><path fill="url(#b)" d="M15 16h9v2h-9z"></path><linearGradient id="c" x1=".331" x2="7.669" y1="15.289" y2="18.711" gradientUnits="userSpaceOnUse"><stop offset="0" stop-color="#ffffff" stop-opacity=".2" class="stopColorFFF svgShape"></stop><stop offset="1" stop-color="#ffffff" stop-opacity="0" class="stopColorFFF svgShape"></stop></linearGradient><path fill="url(#c)" d="M0 16h8v2H0z"></path><linearGradient id="d" x1="9.134" x2="18.634" y1="8.134" y2="17.634" gradientUnits="userSpaceOnUse"><stop offset="0" stop-color="#010101" stop-opacity=".1" class="stopColor010101 svgShape"></stop><stop offset="1" stop-color="#010101" stop-opacity="0" class="stopColor010101 svgShape"></stop></linearGradient><path fill="url(#d)" d="M8 16a.5.5 0 1 1 1 0h15v-5l-3-3v6h-5V9.5L14.5 8v6h-5V9.5L8 8v6H3l2 2h3z"></path><linearGradient id="e" x1="-.155" x2="24.155" y1="6.332" y2="17.668" gradientUnits="userSpaceOnUse"><stop offset="0" stop-color="#ffffff" stop-opacity=".2" class="stopColorFFF svgShape"></stop><stop offset="1" stop-color="#ffffff" stop-opacity="0" class="stopColorFFF svgShape"></stop></linearGradient><path fill="url(#e)" d="M23 9a1 1 0 0 1 1-1V6H0v2a1 1 0 1 1 0 2v8h8v-2a.5.5 0 1 1 1 0v2h15v-8a1 1 0 0 1-1-1z"></path></svg></g></svg>