<svg xmlns="http://www.w3.org/2000/svg" viewBox="0 0 512 512" width="22" height="22"><path fill="#4a89dc" d="M0 58.672h512v426.656H0z" class="color4A89DC svgShape"></path><path fill="#434a54" d="M480 26.672c-5.875 0-10.656 4.766-10.656 10.656S474.125 48 480 48c5.906 0 10.672-4.781 10.672-10.672S485.906 26.672 480 26.672zm-170.656 0H288c-5.875 0-10.656 4.766-10.656 10.656S282.125 48 288 48h21.344C315.234 48 320 43.219 320 37.328s-4.766-10.656-10.656-10.656zm64 0H352c-5.875 0-10.656 4.766-10.656 10.656S346.125 48 352 48h21.344C379.234 48 384 43.219 384 37.328s-4.766-10.656-10.656-10.656zm64 0h-21.328c-5.891 0-10.672 4.766-10.672 10.656S410.125 48 416.016 48h21.328c5.891 0 10.672-4.781 10.672-10.672s-4.782-10.656-10.672-10.656z" class="color434A54 svgShape"></path><path fill="#5d9cec" d="M0 37.328h512V464H0z" class="color5D9CEC svgShape"></path><path fill="#656d78" d="M53.344 90.672H96v42.656H53.344z" class="color656D78 svgShape"></path><path fill="#434a54" d="M42.672 80v64h64V80h-64zm42.672 42.672H64v-21.344h21.344v21.344z" class="color434A54 svgShape"></path><path fill="#e6e9ed" d="M85.344 410.672c-13.281 0-22.281-4.875-27.516-14.906-4.344-8.281-4.484-17.062-4.484-17.156v-31.938H224v64H85.344z" class="colorE6E9ED svgShape"></path><path fill="#cacfd7" d="M42.672 336v42.672s0 42.656 42.672 42.656h149.328V336h-192zm170.672 64h-128c-11.469 0-15.453-4.422-17.844-8.75-2.688-4.891-3.422-10.797-3.5-12.766v-21.156h149.344V400z" class="colorCACFD7 svgShape"></path><path fill="#434a54" d="M53.344 165.328c-5.891 0-10.672 4.781-10.672 10.672v128c0 5.891 4.781 10.672 10.672 10.672S64 309.891 64 304V176c0-5.891-4.766-10.672-10.656-10.672zm42.656 0c-5.875 0-10.656 4.781-10.656 10.672v128c0 5.891 4.781 10.672 10.656 10.672 5.906 0 10.672-4.781 10.672-10.672V176c0-5.891-4.766-10.672-10.672-10.672zm128 0c-5.875 0-10.656 4.781-10.656 10.672v128c0 5.891 4.781 10.672 10.656 10.672 5.906 0 10.672-4.781 10.672-10.672V176c0-5.891-4.766-10.672-10.672-10.672zm-42.656 0c-5.891 0-10.672 4.781-10.672 10.672v128c0 5.891 4.781 10.672 10.672 10.672S192 309.891 192 304V176c0-5.891-4.766-10.672-10.656-10.672zM458.672 400h-192c-5.891 0-10.672 4.781-10.672 10.672s4.781 10.656 10.672 10.656h192c5.891 0 10.672-4.766 10.672-10.656S464.562 400 458.672 400zm-192-21.328h192c5.891 0 10.672-4.781 10.672-10.672s-4.781-10.672-10.672-10.672h-192c-5.891 0-10.672 4.781-10.672 10.672s4.781 10.672 10.672 10.672zm192-256h-192c-5.891 0-10.672 4.766-10.672 10.656S260.781 144 266.672 144h192c5.891 0 10.672-4.781 10.672-10.672s-4.782-10.656-10.672-10.656zm-192-21.344h192c5.891 0 10.672-4.766 10.672-10.656S464.562 80 458.672 80h-192C260.781 80 256 84.781 256 90.672s4.781 10.656 10.672 10.656z" class="color434A54 svgShape"></path><path fill="#e6e9ed" d="M458.672 176h42.672v149.328h-42.672z" class="colorE6E9ED svgShape"></path><path fill="#cacfd7" d="M448 165.328V336h64V165.328h-64zm42.672 149.344h-21.328v-128h21.328v128z" class="colorCACFD7 svgShape"></path><path fill="#cacfd7" d="M490.672 208c0 5.891-4.766 10.672-10.672 10.672-5.875 0-10.656-4.781-10.656-10.672s4.781-10.672 10.656-10.672c5.906 0 10.672 4.781 10.672 10.672zm0 42.672c0 5.891-4.766 10.656-10.672 10.656-5.875 0-10.656-4.766-10.656-10.656S474.125 240 480 240c5.906 0 10.672 4.781 10.672 10.672zm0 42.656c0 5.891-4.766 10.672-10.672 10.672-5.875 0-10.656-4.781-10.656-10.672s4.781-10.656 10.656-10.656c5.906 0 10.672 4.766 10.672 10.656z" class="colorCACFD7 svgShape"></path><path fill="#4a89dc" d="M149.344 90.672c0 5.891-4.781 10.656-10.672 10.656S128 96.562 128 90.672 132.781 80 138.672 80s10.672 4.781 10.672 10.672zM192 133.328c0 5.891-4.766 10.672-10.656 10.672s-10.672-4.781-10.672-10.672 4.781-10.656 10.672-10.656S192 127.438 192 133.328zM170.672 112c0 5.891-4.766 10.672-10.672 10.672-5.875 0-10.656-4.781-10.656-10.672s4.781-10.672 10.656-10.672c5.906 0 10.672 4.781 10.672 10.672zM192 90.672c0 5.891-4.766 10.656-10.656 10.656s-10.672-4.766-10.672-10.656S175.453 80 181.344 80 192 84.781 192 90.672zm-42.656 42.656c0 5.891-4.781 10.672-10.672 10.672S128 139.219 128 133.328s4.781-10.656 10.672-10.656 10.672 4.766 10.672 10.656zm85.328 0c0 5.891-4.766 10.672-10.672 10.672-5.875 0-10.656-4.781-10.656-10.672s4.781-10.656 10.656-10.656c5.906 0 10.672 4.766 10.672 10.656zM213.344 112c0 5.891-4.781 10.672-10.672 10.672S192 117.891 192 112s4.781-10.672 10.672-10.672 10.672 4.781 10.672 10.672zm21.328-21.328c0 5.891-4.766 10.656-10.672 10.656-5.875 0-10.656-4.766-10.656-10.656S218.125 80 224 80c5.906 0 10.672 4.781 10.672 10.672z" class="color4A89DC svgShape"></path><path fill="#cacfd7" d="M181.344 368H96c-5.875 0-10.656 4.781-10.656 10.672S90.125 389.328 96 389.328h85.344c5.891 0 10.656-4.766 10.656-10.656S187.234 368 181.344 368zM266.672 176H416v149.328H266.672z" class="colorCACFD7 svgShape"></path><path fill="#4a89dc" d="M138.672 208c-5.891 0-10.672 4.781-10.672 10.672v42.656c0 5.891 4.781 10.672 10.672 10.672s10.672-4.781 10.672-10.672v-42.656c0-5.891-4.782-10.672-10.672-10.672zm0-21.328c5.891 0 10.672-4.781 10.672-10.672s-4.781-10.672-10.672-10.672S128 170.109 128 176s4.781 10.672 10.672 10.672zm0 106.656c-5.891 0-10.672 4.781-10.672 10.672s4.781 10.672 10.672 10.672 10.672-4.781 10.672-10.672-4.782-10.672-10.672-10.672z" class="color4A89DC svgShape"></path><path fill="#656d78" d="M341.344 325.328c-41.172 0-74.672-33.484-74.672-74.656S300.172 176 341.344 176 416 209.5 416 250.672s-33.484 74.656-74.656 74.656z" class="color656D78 svgShape"></path><path fill="#434a54" d="m412.188 260.953 5.641-20.578c-.578-.156-14.234-3.859-30.688-5.75-8.391-.969-16-1.266-22.812-.938 9.859-9.859 23.625-19.703 34.391-25.844l-10.562-18.531c-.516.297-12.797 7.328-25.781 17.625-6.625 5.266-12.219 10.438-16.812 15.5 0-4.516.297-9.516.906-14.875 1.656-14.766 5.078-27.422 5.156-27.75L341.344 177l-10.297-2.812c-.156.562-3.859 14.219-5.75 30.688-.953 8.391-1.266 16-.938 22.797-9.859-9.844-19.703-23.625-25.844-34.375l-18.531 10.562c.297.516 7.328 12.797 17.625 25.766 5.266 6.625 10.438 12.234 15.5 16.812-4.516.016-9.516-.281-14.875-.891-14.875-1.688-27.625-5.141-27.75-5.172l-2.812 10.297 2.828-10.297-5.641 20.578c.562.156 14.219 3.875 30.688 5.766 6.219.703 12.016 1.062 17.375 1.062 1.859 0 3.672-.047 5.422-.125-9.859 9.844-23.625 19.688-34.375 25.844l5.281 9.266 5.281 9.266c.516-.297 12.797-7.328 25.766-17.641 6.625-5.25 12.234-10.422 16.812-15.484.016 4.516-.281 9.5-.891 14.875-1.688 14.859-5.125 27.609-5.172 27.734l20.578 5.641c.156-.578 3.875-14.234 5.766-30.688.953-8.391 1.266-16 .938-22.812 9.844 9.859 19.688 23.625 25.828 34.375l18.547-10.562c-.297-.516-7.328-12.797-17.641-25.766-5.25-6.625-10.422-12.219-15.484-16.812 4.516 0 9.5.297 14.875.906 14.875 1.671 27.609 5.124 27.735 5.155z" class="color434A54 svgShape"></path><path fill="#ccd1d9" d="M341.344 272C329.578 272 320 262.438 320 250.672s9.578-21.344 21.344-21.344 21.328 9.578 21.328 21.344S353.109 272 341.344 272z" class="colorCCD1D9 svgShape"></path><path fill="#e6e9ed" d="M341.344 218.672c-17.672 0-32 14.328-32 32s14.328 32 32 32 32-14.328 32-32-14.328-32-32-32zm0 42.656c-5.891 0-10.672-4.781-10.672-10.656 0-5.891 4.781-10.672 10.672-10.672 5.875 0 10.656 4.781 10.656 10.672 0 5.875-4.781 10.656-10.656 10.656z" class="colorE6E9ED svgShape"></path><path fill="#434a54" d="M341.344 165.328c-47.125 0-85.344 38.203-85.344 85.344C256 297.797 294.219 336 341.344 336s85.328-38.203 85.328-85.328c0-47.141-38.203-85.344-85.328-85.344zm0 149.344c-35.297 0-64-28.719-64-64 0-35.297 28.703-64 64-64 35.281 0 64 28.703 64 64 0 35.281-28.719 64-64 64z" class="color434A54 svgShape"></path></svg>