<svg xmlns="http://www.w3.org/2000/svg" enable-background="new 0 0 512 512" viewBox="0 0 512 512" width="22" height="22"><circle cx="164.672" cy="256" r="128.953" fill="#33467c" class="color33467c svgShape"></circle><path fill="#b9b9c8" d="M506.913,112.802v286.395c0,21.695-17.589,39.284-39.284,39.284H44.372
			c-21.695,0-39.284-17.589-39.284-39.284V112.802c0-21.695,17.589-39.284,39.284-39.284h423.257
			C489.323,73.518,506.913,91.107,506.913,112.802z" class="colorb9b9c8 svgShape"></path><path fill="#fed92c" d="M476.499,304.743v54.582c0,10.118-8.212,18.329-18.329,18.329H342.76
			c-10.118,0-18.329-8.212-18.329-18.329v-54.582c0-10.118,8.212-18.329,18.329-18.329h115.41
			C468.287,286.414,476.499,294.625,476.499,304.743z" class="colorfed92c svgShape"></path><path fill="#fe631a" d="M476.499,144.483v93.775c0,9.793-7.938,17.741-17.741,17.741H342.172
			c-9.803,0-17.741-7.948-17.741-17.741v-93.775c0-9.793,7.938-17.741,17.741-17.741h116.586
			C468.561,126.742,476.499,134.69,476.499,144.483z" class="colorfe631a svgShape"></path><circle cx="430.878" cy="332.034" r="15.207" fill="#fe631a" class="colorfe631a svgShape"></circle><circle cx="370.051" cy="332.034" r="15.207" fill="#fe631a" class="colorfe631a svgShape"></circle><path fill="#33467c" d="M266.239,176.033l-14.7,2.683l-6.995,19.012v116.545l4.021,15.835l17.674,5.859
			c17.387-22.019,27.778-49.797,27.778-79.967S283.626,198.052,266.239,176.033z" class="color33467c svgShape"></path><path fill="#fed92c" d="M244.544,197.727l-23.216,16.606l-21.168,27.778v27.778l20.357,25.953l24.027,18.431
			C269.98,279.583,269.959,232.387,244.544,197.727z" class="colorfed92c svgShape"></path><path fill="#33467c" d="M84.791 154.52l5.353 13.382 16.342 8.313h116.545l16.951-8.313 4.745-13.382C197.795 117.462 131.715 117.469 84.791 154.52zM237.752 342.003l-14.72-6.218H106.487l-15.802 7.029-5.894 14.666c46.932 37.057 113.011 37.051 159.935 0L237.752 342.003z" class="color33467c svgShape"></path><path fill="#fed92c" d="M106.487 176.215l16.91 27.372 27.474 17.011h27.778l26.054-20.256 18.329-24.128C188.343 150.779 141.146 150.801 106.487 176.215zM178.648 291.401H150.87l-26.46 17.417-17.924 26.967c34.689 25.436 81.885 25.414 116.545 0l-18.735-24.331L178.648 291.401z" class="colorfed92c svgShape"></path><path fill="#33467c" d="M76.897,181.487l-13.618-5.454c-37.057,46.932-37.051,113.011,0,159.935l17.674-5.319l4.021-16.376
			V197.727L76.897,181.487z" class="color33467c svgShape"></path><path fill="#fed92c" d="M84.974,197.727c-25.436,34.689-25.414,81.885,0,116.545l27.271-18.836l17.113-25.548v-27.778
			l-19.14-27.17L84.974,197.727z" class="colorfed92c svgShape"></path><path fill="#dadaeb" d="M392.856 233.19c-6.243 0-9.907-7.244-5.997-12.271l17.067-21.944h-22.471c-6.308 0-9.885-7.279-6.002-12.271l26.612-34.215c2.579-3.314 7.354-3.912 10.67-1.334 3.315 2.578 3.912 7.355 1.334 10.67l-17.067 21.944h22.471c6.308 0 9.885 7.279 6.002 12.271l-26.612 34.215C397.364 232.181 395.122 233.19 392.856 233.19zM244.727 154.52c-7.476 7.476-58.952 58.952-66.079 66.079l21.513 21.513c7.309-7.309 58.064-58.064 66.079-66.079C259.934 168.044 252.715 160.826 244.727 154.52zM200.16 269.889l-21.513 21.513c7.309 7.309 58.064 58.064 66.079 66.079 7.989-6.306 15.207-13.524 21.513-21.513C258.763 328.491 207.287 277.016 200.16 269.889zM129.358 269.889c-7.309 7.309-58.064 58.064-66.079 66.079 6.306 7.989 13.524 15.207 21.513 21.513 7.476-7.476 58.952-58.952 66.079-66.079L129.358 269.889zM84.791 154.52c-7.989 6.306-15.207 13.524-21.513 21.513 7.476 7.476 58.952 58.952 66.079 66.079l21.513-21.513C143.561 213.289 92.807 162.535 84.791 154.52z" class="colordadaeb svgShape"></path><path fill="#fe631a" d="M178.648,291.401c-19.552,7.637-41.579-1.971-49.29-21.513
			c-12.109-31.002,18.603-61.277,49.29-49.29C210.641,233.224,210.77,278.725,178.648,291.401z" class="colorfe631a svgShape"></path></svg>